<svg xmlns="http://www.w3.org/2000/svg" aria-hidden="true" style="position:absolute;width:0;height:0;overflow:hidden">
  <defs>
    <symbol id="icon-close" viewBox="0 0 20 20">
      <path d="M10 8.586 2.929 1.515 1.515 2.929 8.586 10l-7.071 7.071 1.414 1.414L10 11.414l7.071 7.071 1.414-1.414L11.414 10l7.071-7.071-1.414-1.414L10 8.586z"/>
    </symbol>
    <symbol id="icon-arrow-right" viewBox="0 0 24 24">
      <path d="M12 3.984 20.016 12 12 20.016l-1.406-1.406 5.578-5.625H3.984v-1.969h12.188l-5.578-5.625z"/>
    </symbol>
    <symbol id="icon-arrow-left" viewBox="0 0 24 24">
      <path d="M20.016 11.016v1.969H7.828l5.578 5.625L12 20.016 3.984 12 12 3.984l1.406 1.406-5.578 5.625h12.188z"/>
    </symbol>
    <symbol id="icon-keyboard_arrow_up" viewBox="0 0 24 24">
      <path d="M7.406 15.422 6 14.016l6-6 6 6-1.406 1.406L12 10.828z"/>
    </symbol>
    <symbol id="icon-keyboard_arrow_down" viewBox="0 0 24 24">
      <path d="M7.406 8.578 12 13.172l4.594-4.594L18 9.984l-6 6-6-6z"/>
    </symbol>
    <symbol id="icon-menu" viewBox="0 0 24 24">
      <path d="M3 13h18c.552 0 1-.448 1-1s-.448-1-1-1H3c-.552 0-1 .448-1 1s.448 1 1 1zm0-6h18c.552 0 1-.448 1-1s-.448-1-1-1H3c-.552 0-1 .448-1 1s.448 1 1 1zm0 12h18c.552 0 1-.448 1-1s-.448-1-1-1H3c-.552 0-1 .448-1 1s.448 1 1 1z"/>
    </symbol>
    <symbol id="icon-user" viewBox="0 0 24 24">
      <path d="M21 21v-2c0-1.38-.561-2.632-1.464-3.536S17.38 14 16 14H8c-1.38 0-2.632.561-3.536 1.464S3 17.62 3 19v2c0 .552.448 1 1 1s1-.448 1-1v-2c0-.829.335-1.577.879-2.121S7.171 16 8 16h8c.829 0 1.577.335 2.121.879S19 18.171 19 19v2c0 .552.448 1 1 1s1-.448 1-1zM17 7c0-1.38-.561-2.632-1.464-3.536S13.38 2 12 2s-2.632.561-3.536 1.464S7 5.62 7 7s.561 2.632 1.464 3.536S10.62 12 12 12s2.632-.561 3.536-1.464S17 8.38 17 7zm-2 0c0 .829-.335 1.577-.879 2.121S12.829 10 12 10s-1.577-.335-2.121-.879S9 7.829 9 7s.335-1.577.879-2.121S11.171 4 12 4s1.577.335 2.121.879S15 6.171 15 7z"/>
    </symbol>
    <symbol id="icon-hourglass-o" viewBox="0 0 24 28">
      <path d="M22 2c0 5.781-2.766 9.969-5.828 12C19.235 16.031 22 20.219 22 26h1.5c.281 0 .5.219.5.5v1c0 .281-.219.5-.5.5H.5c-.281 0-.5-.219-.5-.5v-1c0-.281.219-.5.5-.5H2c0-5.781 2.766-9.969 5.828-12C4.765 11.969 2 7.781 2 2H.5C.219 2 0 1.781 0 1.5v-1C0 .219.219 0 .5 0h23c.281 0 .5.219.5.5v1c0 .281-.219.5-.5.5H22zm-8.344 11.062C16.812 11.874 20 7.703 20 2H4c0 5.703 3.187 9.875 6.344 11.062.391.141.656.516.656.938s-.266.797-.656.938C7.188 16.126 4 20.297 4 26h16c0-5.703-3.187-9.875-6.344-11.062-.391-.141-.656-.516-.656-.938s.266-.797.656-.938z"/>
    </symbol>
    <symbol id="icon-brush" viewBox="0 0 32 32">
      <path d="M27.555 8.42c-1.355 1.647-5.07 6.195-8.021 9.81l-3.747-3.804c3.389-3.016 7.584-6.744 9.1-8.079 2.697-2.377 5.062-3.791 5.576-3.213.322.32-.533 2.396-2.908 5.286zm-8.676 10.61c-1.143 1.399-2.127 2.604-2.729 3.343l-4.436-4.323c.719-.64 1.916-1.705 3.304-2.939l3.861 3.919zm-3.39 4.153v-.012c-2.575 9.88-14.018 4.2-14.018 4.2s4.801.605 4.801-3.873c0-4.341 4.412-4.733 4.683-4.753l4.543 4.427c0 .001-.009.011-.009.011z"/>
    </symbol>
    <symbol id="icon-bubbles" viewBox="0 0 18 18">
      <path d="M16.091 9.234c.558-.847.886-1.875.886-2.984 0-2.899-2.233-5.25-4.989-5.25-2.391 0-4.386 1.771-4.873 4.134C6.759 5.049 6.391 5 6.011 5c-2.755 0-4.989 2.351-4.989 5.25 0 1.109.328 2.136.886 2.984L.999 17l4.802-1.511c.07.003.139.011.209.011 2.391 0 4.386-1.771 4.873-4.134.356.085.724.134 1.105.134.071 0 .14-.008.209-.011L16.999 13l-.909-3.766zm-7.1 1.205v.001c-.017.317-.075.621-.17.907 0 .002-.001.003-.001.005-.031.093-.065.184-.104.272-.002.004-.004.009-.006.014-.037.085-.077.168-.12.249-.005.01-.011.019-.017.029-.041.075-.084.148-.131.218l-.033.048c-.043.063-.087.124-.134.184-.019.023-.038.046-.058.069-.042.05-.083.099-.127.145-.03.032-.063.062-.094.093-.036.035-.071.071-.108.104-.048.042-.098.081-.148.12-.024.019-.047.039-.072.057-.073.053-.149.103-.227.149-.004.002-.007.005-.011.007-.339.2-.718.331-1.121.375-.005 0-.011 0-.016.001-.083.008-.168.015-.254.016l-.013-.001h-.002c-.007 0-.015.001-.022.001-.106 0-.212-.006-.315-.018l-.147-.007-1.763.555.079-.327.204-.844-.303-.46c-.468-.573-.754-1.324-.754-2.149 0-1.795 1.343-3.25 3-3.25h.011c.099 0 .197.006.293.017.009.001.019.003.027.004.086.01.171.024.254.042.045.01.088.023.132.034s.091.023.136.038c.055.018.108.039.162.06.024.009.049.017.073.027v.002c1.118.473 1.911 1.647 1.911 3.026 0 .064-.006.126-.009.189zm5.43-2.305-.478.725.283 1.171-1.763-.555-.352.015c-.046.002-.091.005-.136.008l-.013.001c-.371-.004-.724-.084-1.051-.222-.233-1.31-.93-2.445-1.902-3.217.091-1.704 1.391-3.061 2.98-3.061 1.648 0 2.989 1.458 2.989 3.25 0 .679-.192 1.33-.557 1.884z"/>
    </symbol>
     <symbol id = "icon-burger" viewBox="0 0 28 28">
       <path d="M3.5 9.91666H24.5M3.5 18.0833H24.5"/>
     </symbol>
     

  </defs>
</svg>
