<svg xmlns="http://www.w3.org/2000/svg" aria-hidden="true" style="position:absolute;width:0;height:0;overflow:hidden">
  <defs>
    <symbol id="icon-close" viewBox="0 0 20 20">
      <path
        d="M10 8.586 2.929 1.515 1.515 2.929 8.586 10l-7.071 7.071 1.414 1.414L10 11.414l7.071 7.071 1.414-1.414L11.414 10l7.071-7.071-1.414-1.414L10 8.586z" />
    </symbol>
    <symbol id="icon-arrow-right" viewBox="0 0 24 24">
      <path d="M12 3.984 20.016 12 12 20.016l-1.406-1.406 5.578-5.625H3.984v-1.969h12.188l-5.578-5.625z" />
    </symbol>
    <symbol id="icon-arrow-left" viewBox="0 0 24 24">
      <path d="M20.016 11.016v1.969H7.828l5.578 5.625L12 20.016 3.984 12 12 3.984l1.406 1.406-5.578 5.625h12.188z" />
    </symbol>
    <symbol id="icon-keyboard_arrow_up" viewBox="0 0 24 24">
      <path d="M7.406 15.422 6 14.016l6-6 6 6-1.406 1.406L12 10.828z" />
    </symbol>
    <symbol id="icon-keyboard_arrow_down" viewBox="0 0 24 24">
      <path d="M7.406 8.578 12 13.172l4.594-4.594L18 9.984l-6 6-6-6z" />
    </symbol>
    <symbol id="icon-menu" viewBox="0 0 24 24">
      <path
        d="M3 13h18c.552 0 1-.448 1-1s-.448-1-1-1H3c-.552 0-1 .448-1 1s.448 1 1 1zm0-6h18c.552 0 1-.448 1-1s-.448-1-1-1H3c-.552 0-1 .448-1 1s.448 1 1 1zm0 12h18c.552 0 1-.448 1-1s-.448-1-1-1H3c-.552 0-1 .448-1 1s.448 1 1 1z" />
    </symbol>
    <symbol id="icon-user" viewBox="0 0 24 24">
      <path
        d="M21 21v-2c0-1.38-.561-2.632-1.464-3.536S17.38 14 16 14H8c-1.38 0-2.632.561-3.536 1.464S3 17.62 3 19v2c0 .552.448 1 1 1s1-.448 1-1v-2c0-.829.335-1.577.879-2.121S7.171 16 8 16h8c.829 0 1.577.335 2.121.879S19 18.171 19 19v2c0 .552.448 1 1 1s1-.448 1-1zM17 7c0-1.38-.561-2.632-1.464-3.536S13.38 2 12 2s-2.632.561-3.536 1.464S7 5.62 7 7s.561 2.632 1.464 3.536S10.62 12 12 12s2.632-.561 3.536-1.464S17 8.38 17 7zm-2 0c0 .829-.335 1.577-.879 2.121S12.829 10 12 10s-1.577-.335-2.121-.879S9 7.829 9 7s.335-1.577.879-2.121S11.171 4 12 4s1.577.335 2.121.879S15 6.171 15 7z" />
    </symbol>
    <symbol id="icon-hourglass-o" viewBox="0 0 24 28">
      <path
        d="M22 2c0 5.781-2.766 9.969-5.828 12C19.235 16.031 22 20.219 22 26h1.5c.281 0 .5.219.5.5v1c0 .281-.219.5-.5.5H.5c-.281 0-.5-.219-.5-.5v-1c0-.281.219-.5.5-.5H2c0-5.781 2.766-9.969 5.828-12C4.765 11.969 2 7.781 2 2H.5C.219 2 0 1.781 0 1.5v-1C0 .219.219 0 .5 0h23c.281 0 .5.219.5.5v1c0 .281-.219.5-.5.5H22zm-8.344 11.062C16.812 11.874 20 7.703 20 2H4c0 5.703 3.187 9.875 6.344 11.062.391.141.656.516.656.938s-.266.797-.656.938C7.188 16.126 4 20.297 4 26h16c0-5.703-3.187-9.875-6.344-11.062-.391-.141-.656-.516-.656-.938s.266-.797.656-.938z" />
    </symbol>
    <symbol id="icon-brush" viewBox="0 0 32 32">
      <path
        d="M27.555 8.42c-1.355 1.647-5.07 6.195-8.021 9.81l-3.747-3.804c3.389-3.016 7.584-6.744 9.1-8.079 2.697-2.377 5.062-3.791 5.576-3.213.322.32-.533 2.396-2.908 5.286zm-8.676 10.61c-1.143 1.399-2.127 2.604-2.729 3.343l-4.436-4.323c.719-.64 1.916-1.705 3.304-2.939l3.861 3.919zm-3.39 4.153v-.012c-2.575 9.88-14.018 4.2-14.018 4.2s4.801.605 4.801-3.873c0-4.341 4.412-4.733 4.683-4.753l4.543 4.427c0 .001-.009.011-.009.011z" />
    </symbol>
    <symbol id="icon-bubbles" viewBox="0 0 18 18">
      <path
        d="M16.091 9.234c.558-.847.886-1.875.886-2.984 0-2.899-2.233-5.25-4.989-5.25-2.391 0-4.386 1.771-4.873 4.134C6.759 5.049 6.391 5 6.011 5c-2.755 0-4.989 2.351-4.989 5.25 0 1.109.328 2.136.886 2.984L.999 17l4.802-1.511c.07.003.139.011.209.011 2.391 0 4.386-1.771 4.873-4.134.356.085.724.134 1.105.134.071 0 .14-.008.209-.011L16.999 13l-.909-3.766zm-7.1 1.205v.001c-.017.317-.075.621-.17.907 0 .002-.001.003-.001.005-.031.093-.065.184-.104.272-.002.004-.004.009-.006.014-.037.085-.077.168-.12.249-.005.01-.011.019-.017.029-.041.075-.084.148-.131.218l-.033.048c-.043.063-.087.124-.134.184-.019.023-.038.046-.058.069-.042.05-.083.099-.127.145-.03.032-.063.062-.094.093-.036.035-.071.071-.108.104-.048.042-.098.081-.148.12-.024.019-.047.039-.072.057-.073.053-.149.103-.227.149-.004.002-.007.005-.011.007-.339.2-.718.331-1.121.375-.005 0-.011 0-.016.001-.083.008-.168.015-.254.016l-.013-.001h-.002c-.007 0-.015.001-.022.001-.106 0-.212-.006-.315-.018l-.147-.007-1.763.555.079-.327.204-.844-.303-.46c-.468-.573-.754-1.324-.754-2.149 0-1.795 1.343-3.25 3-3.25h.011c.099 0 .197.006.293.017.009.001.019.003.027.004.086.01.171.024.254.042.045.01.088.023.132.034s.091.023.136.038c.055.018.108.039.162.06.024.009.049.017.073.027v.002c1.118.473 1.911 1.647 1.911 3.026 0 .064-.006.126-.009.189zm5.43-2.305-.478.725.283 1.171-1.763-.555-.352.015c-.046.002-.091.005-.136.008l-.013.001c-.371-.004-.724-.084-1.051-.222-.233-1.31-.93-2.445-1.902-3.217.091-1.704 1.391-3.061 2.98-3.061 1.648 0 2.989 1.458 2.989 3.25 0 .679-.192 1.33-.557 1.884z" />
    </symbol>
    <symbol id="icon-burger" viewBox="0 0 28 28">
      <path d="M3.5 9.91666H24.5M3.5 18.0833H24.5" />
    </symbol>
    <symbol id="icon-jefferson" viewBox="0 0 141 32">
      <path fill="#fafafa" style="fill: var(--color1, #fafafa)"
        d="M133.416 15.158l0.234-4.936-4.313 2.685-1.337-2.219 4.58-2.251-4.58-2.251 1.337-2.251 4.313 2.685-0.234-4.936h2.641l-0.234 4.936 4.313-2.685 1.337 2.251-4.58 2.251 4.58 2.251-1.337 2.219-4.313-2.685 0.234 4.936h-2.641z">
      </path>
      <path fill="#fafafa" style="fill: var(--color1, #fafafa)"
        d="M112.987 14.412v10.851h-3.513v-18.297h3.415v3.011h0.244c0.412-0.993 1.057-1.778 1.936-2.357 0.878-0.589 2.006-0.884 3.383-0.884 1.236 0 2.315 0.262 3.236 0.786 0.933 0.513 1.654 1.282 2.163 2.308 0.52 1.026 0.781 2.297 0.781 3.813v11.62h-3.513v-11.194c0-1.32-0.347-2.357-1.041-3.11-0.694-0.764-1.637-1.146-2.83-1.146-0.813 0-1.545 0.185-2.196 0.556-0.64 0.36-1.144 0.878-1.512 1.555s-0.553 1.506-0.553 2.488z">
      </path>
      <path fill="#fafafa" style="fill: var(--color1, #fafafa)"
        d="M99.36 25.263c-1.69 0-3.17-0.385-4.441-1.155-1.26-0.77-2.239-1.85-2.939-3.24-0.689-1.39-1.033-3.005-1.033-4.844 0-1.861 0.344-3.486 1.033-4.876 0.7-1.401 1.679-2.486 2.939-3.256 1.27-0.77 2.75-1.155 4.441-1.155 1.701 0 3.181 0.385 4.441 1.155s2.239 1.855 2.939 3.256c0.7 1.39 1.050 3.016 1.050 4.876 0 1.839-0.35 3.454-1.050 4.844s-1.679 2.47-2.939 3.24c-1.259 0.77-2.74 1.155-4.441 1.155zM99.36 22.328c1.109 0 2.024-0.289 2.745-0.866s1.254-1.342 1.599-2.294c0.355-0.963 0.533-2.010 0.533-3.144 0-1.155-0.178-2.214-0.533-3.176-0.344-0.962-0.877-1.732-1.599-2.31s-1.636-0.866-2.745-0.866c-1.098 0-2.008 0.289-2.729 0.866-0.711 0.577-1.243 1.347-1.599 2.31s-0.533 2.021-0.533 3.176c0 1.134 0.178 2.181 0.533 3.144 0.355 0.952 0.888 1.716 1.599 2.294 0.721 0.577 1.631 0.866 2.729 0.866z">
      </path>
      <path fill="#fafafa" style="fill: var(--color1, #fafafa)"
        d="M88.896 11.356l-3.289 0.545c-0.212-0.599-0.606-1.15-1.185-1.652-0.568-0.503-1.419-0.754-2.554-0.754-1.024 0-1.881 0.225-2.571 0.674-0.679 0.438-1.018 1-1.018 1.684 0 0.599 0.228 1.085 0.684 1.46 0.467 0.374 1.207 0.674 2.22 0.898l2.988 0.642c1.703 0.374 2.977 0.962 3.823 1.764s1.269 1.829 1.269 3.080c0 1.080-0.323 2.042-0.968 2.887-0.645 0.834-1.541 1.492-2.688 1.973-1.146 0.47-2.471 0.706-3.973 0.706-2.092 0-3.795-0.433-5.108-1.299s-2.12-2.085-2.421-3.657l3.489-0.513c0.222 0.877 0.673 1.54 1.352 1.989 0.69 0.449 1.58 0.674 2.671 0.674 1.18 0 2.126-0.241 2.838-0.722 0.723-0.481 1.085-1.064 1.085-1.748 0-1.133-0.879-1.898-2.637-2.294l-3.155-0.674c-1.747-0.385-3.038-0.989-3.873-1.813-0.824-0.834-1.235-1.882-1.235-3.144 0-1.059 0.306-1.989 0.918-2.791 0.623-0.802 1.475-1.422 2.554-1.861 1.091-0.449 2.331-0.674 3.723-0.674 2.026 0 3.611 0.422 4.758 1.267 1.157 0.845 1.925 1.962 2.304 3.352z">
      </path>
      <path fill="#fafafa" style="fill: var(--color1, #fafafa)"
        d="M64 25.263v-18.265h3.538v2.924h0.203c0.35-0.98 0.959-1.754 1.828-2.32 0.88-0.577 1.873-0.866 2.979-0.866 0.226 0 0.491 0.011 0.795 0.033 0.316 0.011 0.57 0.027 0.762 0.049v3.398c-0.147-0.044-0.412-0.087-0.796-0.131-0.372-0.044-0.75-0.065-1.134-0.065-0.869 0-1.648 0.18-2.336 0.539-0.677 0.349-1.213 0.833-1.608 1.454-0.384 0.61-0.576 1.318-0.576 2.124v11.126h-3.656z">
      </path>
      <path fill="#fafafa" style="fill: var(--color1, #fafafa)"
        d="M54.344 25.263c-1.82 0-3.395-0.38-4.726-1.139s-2.358-1.829-3.079-3.208c-0.71-1.39-1.065-3.010-1.065-4.86 0-1.839 0.349-3.459 1.048-4.86 0.71-1.401 1.703-2.492 2.979-3.272 1.287-0.791 2.796-1.187 4.527-1.187 1.054 0 2.075 0.166 3.062 0.497s1.875 0.855 2.663 1.572c0.788 0.716 1.409 1.647 1.864 2.791 0.466 1.144 0.699 2.524 0.699 4.138v1.251h-14.795v-2.615h12.931l-1.681 0.866c0-1.101-0.178-2.075-0.533-2.919s-0.888-1.502-1.598-1.973c-0.699-0.481-1.57-0.722-2.613-0.722s-1.936 0.241-2.68 0.722c-0.732 0.481-1.292 1.117-1.681 1.909s-0.582 1.657-0.582 2.598v1.78c0 1.23 0.222 2.272 0.666 3.128s1.060 1.508 1.847 1.957c0.799 0.449 1.725 0.674 2.779 0.674 0.688 0 1.309-0.096 1.864-0.289 0.566-0.192 1.054-0.481 1.464-0.866s0.721-0.861 0.932-1.428l3.428 0.626c-0.277 0.963-0.766 1.807-1.465 2.534s-1.581 1.294-2.646 1.7c-1.054 0.396-2.258 0.594-3.611 0.594z">
      </path>
      <path fill="#fafafa" style="fill: var(--color1, #fafafa)"
        d="M46.213 7.158v2.834h-10.844v-2.834h10.844zM38.324 25.263v-20.211c0-1.123 0.264-2.057 0.791-2.802 0.538-0.756 1.237-1.317 2.097-1.684 0.871-0.378 1.804-0.567 2.801-0.567 0.767 0 1.421 0.059 1.959 0.178s0.934 0.221 1.186 0.308l-0.894 2.85c-0.172-0.054-0.395-0.113-0.67-0.178-0.263-0.065-0.596-0.097-0.997-0.097-0.905 0-1.558 0.216-1.959 0.648-0.401 0.421-0.601 1.036-0.601 1.846v19.709h-3.712z">
      </path>
      <path fill="#fafafa" style="fill: var(--color1, #fafafa)"
        d="M36.107 7.158v2.834h-10.844v-2.834h10.844zM28.219 25.263v-20.211c0-1.123 0.264-2.057 0.791-2.802 0.538-0.756 1.237-1.317 2.097-1.684 0.871-0.378 1.804-0.567 2.801-0.567 0.767 0 1.421 0.059 1.959 0.178s0.934 0.221 1.186 0.308l-0.894 2.85c-0.172-0.054-0.395-0.113-0.67-0.178-0.263-0.065-0.596-0.097-0.997-0.097-0.905 0-1.558 0.216-1.959 0.648-0.401 0.421-0.601 1.036-0.601 1.846v19.709h-3.712z">
      </path>
      <path fill="#fafafa" style="fill: var(--color1, #fafafa)"
        d="M17.291 25.263c-1.82 0-3.395-0.38-4.726-1.139s-2.358-1.829-3.079-3.208c-0.71-1.39-1.065-3.010-1.065-4.86 0-1.839 0.35-3.459 1.048-4.86 0.71-1.401 1.703-2.492 2.979-3.272 1.287-0.791 2.796-1.187 4.527-1.187 1.054 0 2.075 0.166 3.062 0.497s1.875 0.855 2.663 1.572c0.788 0.716 1.409 1.647 1.864 2.791 0.466 1.144 0.699 2.524 0.699 4.138v1.251h-14.795v-2.615h12.931l-1.681 0.866c0-1.101-0.178-2.075-0.533-2.919s-0.888-1.502-1.598-1.973c-0.699-0.481-1.57-0.722-2.613-0.722s-1.936 0.241-2.68 0.722c-0.732 0.481-1.293 1.117-1.681 1.909s-0.582 1.657-0.582 2.598v1.78c0 1.23 0.222 2.272 0.666 3.128s1.060 1.508 1.847 1.957c0.799 0.449 1.725 0.674 2.779 0.674 0.688 0 1.309-0.096 1.864-0.289 0.566-0.192 1.054-0.481 1.464-0.866s0.721-0.861 0.932-1.428l3.428 0.626c-0.277 0.963-0.766 1.807-1.465 2.534s-1.581 1.294-2.646 1.7c-1.054 0.396-2.258 0.594-3.611 0.594z">
      </path>
      <path fill="#fafafa" style="fill: var(--color1, #fafafa)"
        d="M2.878 7.012h3.416v19.376c0.011 1.215-0.2 2.24-0.633 3.075s-1.065 1.464-1.898 1.887c-0.833 0.434-1.856 0.651-3.068 0.651h-0.696v-3.042h0.553c0.822 0 1.413-0.222 1.771-0.667s0.543-1.085 0.554-1.92v-19.36zM4.57 4.214c-0.601 0-1.112-0.206-1.534-0.618s-0.633-0.906-0.633-1.48c0-0.586 0.211-1.085 0.633-1.497s0.933-0.618 1.534-0.618c0.59 0 1.096 0.206 1.518 0.618 0.432 0.412 0.648 0.911 0.648 1.497 0 0.575-0.216 1.068-0.648 1.48-0.422 0.412-0.928 0.618-1.518 0.618z">
      </path>
    </symbol>

  </defs>
</svg>