<?xml version="1.0" standalone="no"?>
<!DOCTYPE svg PUBLIC "-//W3C//DTD SVG 20010904//EN"
 "http://www.w3.org/TR/2001/REC-SVG-20010904/DTD/svg10.dtd">
<svg version="1.0" xmlns="http://www.w3.org/2000/svg"
 width="4096.000000pt" height="2731.000000pt" viewBox="0 0 4096.000000 2731.000000"
 preserveAspectRatio="xMidYMid meet">

<g transform="translate(0.000000,2731.000000) scale(0.100000,-0.100000)"
fill="#000000" stroke="none">
<defs>
<symbol id = "icon-jeff">
<path d="M19583 23693 c-16 -6 -35 -19 -42 -27 -8 -9 -23 -16 -35 -16 -17 0
-18 2 -6 10 13 9 13 11 1 19 -14 9 -47 -8 -98 -53 -15 -13 -43 -20 -90 -23
-37 -3 -79 -11 -93 -18 -14 -7 -36 -17 -50 -23 -21 -8 -16 -10 35 -11 131 -4
171 -7 197 -15 17 -5 45 -3 78 7 57 17 106 6 116 -25 8 -26 47 -32 83 -14 22
12 29 13 25 3 -7 -18 273 -52 351 -42 53 6 90 1 199 -27 49 -12 31 -28 -31
-28 -24 0 -43 -3 -43 -7 0 -10 -56 -14 -88 -7 -13 2 -20 9 -16 15 3 6 19 8 35
5 16 -3 29 -1 29 4 0 14 -77 13 -85 -1 -4 -6 -12 -8 -19 -6 -6 3 -20 -1 -30
-8 -19 -14 -41 -11 -67 12 -12 10 -37 12 -93 10 -42 -3 -79 -7 -82 -10 -4 -3
-44 -3 -90 0 -59 4 -88 2 -98 -6 -21 -18 -76 -25 -76 -11 0 7 6 10 14 7 8 -3
19 0 25 7 9 11 5 15 -17 19 -33 7 -72 -1 -72 -14 0 -5 10 -9 22 -9 30 0 13
-15 -35 -30 -21 -6 -46 -20 -55 -30 -9 -10 -30 -20 -47 -23 -41 -7 -65 -17
-65 -29 0 -5 -4 -6 -10 -3 -5 3 -10 1 -10 -4 0 -6 -7 -11 -16 -11 -9 0 -14 -6
-11 -12 2 -7 13 -13 25 -13 43 0 21 -19 -40 -35 -35 -9 -71 -21 -82 -25 -28
-12 -16 17 13 31 45 23 42 30 -14 26 -30 -2 -55 -1 -55 3 0 20 24 45 44 45 12
0 32 10 44 23 l21 22 -31 2 c-16 1 -36 7 -44 14 -16 13 -77 15 -96 3 -7 -5
-38 -11 -68 -15 -30 -4 -68 -13 -85 -20 -16 -7 -36 -11 -44 -10 -8 1 -10 -2
-6 -10 5 -8 24 -10 57 -6 36 5 48 3 45 -6 -2 -7 -16 -11 -31 -9 -18 2 -26 -2
-27 -13 -3 -28 -4 -33 -11 -41 -5 -4 -8 2 -8 14 0 12 -6 22 -12 22 -21 -1 -45
-24 -40 -38 3 -10 -15 -12 -75 -10 -110 3 -203 -6 -239 -25 -18 -9 -34 -13
-38 -10 -3 4 -6 1 -6 -5 0 -14 -35 -37 -70 -47 -25 -8 -25 -7 -6 13 10 12 27
24 38 28 24 7 18 30 -8 26 -89 -12 -102 -13 -108 -3 -13 20 -73 11 -129 -18
-51 -27 -58 -28 -82 -15 -26 13 -29 12 -76 -30 -51 -46 -122 -86 -152 -86 -10
0 -32 -16 -50 -36 -52 -59 -54 -72 -5 -31 26 20 48 37 51 37 2 0 4 -13 5 -30
0 -22 -7 -35 -27 -50 -21 -14 -27 -26 -24 -44 7 -34 -10 -39 -42 -14 -37 29
-114 36 -149 13 -16 -11 -36 -15 -54 -12 -25 5 -62 -11 -62 -28 0 -4 23 -5 50
-3 37 2 50 -1 50 -10 0 -14 -43 -59 -72 -77 -9 -5 -18 -21 -20 -35 -4 -32 -15
-40 -55 -40 -22 0 -33 -5 -33 -14 0 -26 -21 -29 -45 -6 -22 20 -24 21 -51 6
-16 -9 -56 -31 -89 -50 -32 -18 -61 -40 -63 -47 -8 -27 -54 -67 -95 -84 -90
-37 -106 -48 -150 -113 -25 -37 -47 -74 -49 -82 -4 -17 19 -20 47 -6 11 5 25
10 30 11 6 0 21 6 33 13 25 14 38 11 28 -7 -4 -5 -29 -24 -56 -42 -59 -38 -75
-65 -33 -54 l28 7 -30 -33 c-16 -18 -35 -39 -42 -46 -6 -7 -16 -13 -22 -13
-14 0 -80 -89 -88 -118 -3 -14 -21 -38 -39 -55 -39 -34 -48 -79 -14 -70 25 7
25 3 1 -39 -23 -41 -38 -113 -21 -103 8 5 10 1 6 -12 -5 -14 -1 -19 16 -20 12
-1 25 3 29 8 3 6 9 -5 13 -24 4 -20 12 -37 19 -40 9 -3 6 -17 -11 -51 -12 -26
-18 -45 -12 -41 5 3 7 0 4 -8 -3 -8 1 -19 9 -25 11 -9 16 -7 25 13 13 27 32
34 32 10 0 -8 -11 -21 -23 -30 -27 -17 -65 -134 -48 -144 6 -4 0 -19 -15 -36
-30 -35 -14 -48 20 -16 12 12 25 19 28 16 3 -4 14 4 24 17 26 32 57 25 52 -11
-4 -29 15 -56 32 -46 21 13 10 -86 -16 -136 -14 -28 -21 -48 -15 -44 15 8 14
-30 0 -57 -11 -20 -13 -20 -24 -5 -11 16 -13 15 -17 -6 -4 -20 -1 -22 29 -19
35 4 38 1 23 -28 -12 -22 -3 -50 15 -50 7 0 15 7 19 15 3 8 20 21 38 28 34 14
62 12 52 -4 -7 -12 -10 -99 -3 -99 3 0 10 5 17 12 9 9 12 6 12 -16 0 -24 2
-27 15 -16 8 7 15 20 15 29 0 10 7 26 15 37 14 18 14 18 15 -8 0 -19 5 -28 16
-28 9 0 -4 -20 -36 -51 -28 -28 -49 -54 -45 -57 4 -4 12 0 18 9 7 10 23 15 39
13 15 -1 30 2 33 7 4 5 16 14 27 20 20 11 20 10 -2 -27 -13 -22 -39 -57 -57
-78 -18 -22 -35 -55 -38 -75 -3 -20 -8 -49 -11 -66 l-4 -29 32 30 c18 17 41
34 51 37 9 4 17 16 17 27 0 24 -8 25 -32 3 -10 -9 -21 -13 -24 -10 -8 7 12 38
55 87 l31 35 -1 -75 c-1 -41 -1 -79 0 -84 2 -18 44 36 45 58 3 48 36 58 36 11
0 -15 -10 -31 -26 -41 -17 -12 -24 -23 -20 -37 2 -10 -1 -33 -9 -51 -7 -17
-16 -39 -19 -48 -7 -24 -36 -12 -36 15 0 36 -17 5 -23 -41 -4 -36 -3 -41 9
-31 11 9 14 7 14 -13 0 -35 9 -40 39 -20 14 9 35 22 46 28 11 7 19 20 17 29
-2 10 2 22 10 26 22 14 31 10 25 -11 -3 -11 -2 -20 2 -20 10 0 29 35 45 80
l13 39 -61 -54 c-33 -30 -64 -55 -68 -55 -4 0 2 19 12 43 11 23 24 41 29 40
17 -4 81 63 81 85 0 11 5 24 10 27 7 4 9 -2 4 -19 -9 -38 7 -32 50 20 43 51
56 53 27 3 -15 -26 -18 -45 -14 -81 4 -31 9 -45 17 -41 6 4 4 -2 -5 -13 -8
-10 -23 -32 -33 -49 -17 -27 -15 -26 23 10 51 48 73 82 46 71 -14 -5 -17 -2
-13 19 3 13 0 26 -5 28 -6 2 -2 11 9 20 154 136 215 195 225 219 16 39 4 47
-22 15 -23 -30 -55 -37 -45 -11 3 9 6 24 6 34 0 10 12 28 26 41 14 13 29 34
34 47 5 12 17 22 25 22 9 0 14 4 11 8 -8 13 13 82 24 82 6 0 10 -13 10 -30 0
-23 3 -28 16 -23 14 5 16 1 12 -18 -3 -13 -9 -31 -12 -41 -6 -12 0 -18 22 -23
28 -6 29 -8 21 -43 -10 -47 -6 -95 10 -100 13 -4 15 24 1 33 -14 9 -1 35 15
29 8 -3 19 5 26 18 22 43 40 58 54 45 16 -15 8 -45 -22 -81 -20 -23 -21 -31
-11 -45 7 -9 14 -18 16 -21 2 -3 2 4 0 15 -1 11 2 20 9 20 6 0 15 4 20 9 5 5
3 6 -4 2 -16 -9 -16 -5 -3 29 7 19 15 25 27 21 18 -7 33 9 33 36 0 12 -5 15
-15 11 -9 -3 -15 -2 -14 3 4 17 -13 44 -27 44 -8 0 -14 9 -14 20 0 21 20 29
20 8 0 -7 12 -1 25 15 13 15 22 33 19 40 -2 7 3 30 11 51 19 44 13 57 -14 32
-19 -17 -19 -17 -6 21 8 23 9 40 4 44 -5 3 -12 29 -16 57 -6 51 -6 51 -24 29
-16 -19 -18 -20 -19 -4 0 24 -15 21 -29 -5 -9 -19 -10 -12 -6 40 8 89 18 110
49 108 16 0 21 -5 15 -10 -13 -14 -11 -36 4 -36 30 0 54 76 64 198 5 61 23 88
23 34 0 -15 4 -32 8 -38 11 -11 32 -130 32 -176 0 -20 6 -41 14 -47 11 -9 13
-26 9 -65 -6 -58 12 -88 23 -39 3 15 16 49 30 74 13 25 29 70 36 100 9 40 13
48 16 29 6 -43 20 -44 37 -4 11 26 14 53 11 79 -5 28 -3 36 4 25 5 -8 10 -32
10 -52 0 -66 17 -41 24 35 10 110 10 120 1 151 -6 22 -5 28 6 24 8 -2 18 -14
24 -26 16 -36 38 -28 30 11 -4 17 -11 37 -16 43 -10 12 -8 94 1 94 4 0 11 -5
18 -12 16 -16 17 128 2 168 -10 25 -9 26 7 13 15 -13 16 -12 8 6 -14 33 -18
95 -7 95 6 0 13 10 15 23 2 12 3 7 1 -10 -2 -21 2 -32 9 -30 7 1 13 -10 15
-26 2 -15 12 -32 23 -37 10 -6 19 -20 19 -31 0 -11 5 -17 10 -14 16 10 12 -7
-7 -27 -15 -17 -15 -20 -3 -28 23 -15 30 -12 30 10 0 11 5 20 11 20 6 0 9 -9
6 -19 -4 -15 0 -18 19 -16 16 1 26 -4 30 -17 10 -32 29 -14 34 33 5 45 12 44
24 -3 3 -15 2 -30 -4 -33 -13 -8 -11 -52 4 -95 l13 -34 18 27 c12 19 23 26 36
22 13 -4 19 -1 19 9 0 9 7 16 15 16 8 0 15 -9 15 -20 0 -10 7 -23 16 -28 11
-6 13 -11 5 -16 -13 -9 -14 -75 -1 -96 11 -17 12 -12 15 40 0 19 2 69 4 110
l3 75 14 -45 c8 -25 14 -67 12 -94 -2 -37 1 -51 14 -60 13 -8 21 -7 30 3 11
11 10 12 -1 6 -11 -6 -13 -4 -8 8 3 9 2 19 -3 22 -15 9 -12 25 5 25 8 0 23 17
34 38 16 32 17 40 5 57 -17 26 -3 55 19 37 12 -10 16 -9 21 4 8 22 8 26 -4 19
-15 -9 -12 4 4 21 19 18 27 18 20 -1 -9 -22 14 -18 26 5 11 21 40 28 40 10 0
-5 12 -10 26 -10 21 0 25 4 20 18 -3 9 7 2 23 -16 26 -31 30 -32 45 -17 15 15
17 15 32 1 20 -21 30 -20 44 2 9 14 10 12 5 -12 -3 -16 -19 -42 -36 -58 -16
-17 -27 -33 -23 -37 4 -3 9 0 11 7 3 6 11 12 18 12 8 0 17 9 20 20 4 11 10 18
15 15 5 -3 13 3 19 12 9 16 11 14 21 -14 13 -37 16 -39 36 -19 18 19 18 33 -2
44 -9 5 -14 14 -10 20 10 16 115 62 142 62 13 0 24 5 24 10 0 6 -26 10 -63 9
-51 -1 -75 4 -127 29 -56 26 -66 28 -71 14 -5 -13 -6 -13 -11 -1 -3 8 -38 28
-77 43 -39 15 -71 31 -71 35 0 14 36 41 53 41 9 0 17 4 17 9 0 6 25 18 55 27
43 14 54 21 50 34 -3 10 0 22 7 27 20 16 78 22 78 8 0 -7 11 -10 30 -7 18 3
30 0 30 -7 0 -6 7 -11 16 -11 8 0 12 5 9 10 -7 12 5 13 22 2 18 -12 4 -52 -18
-52 -18 0 -99 -72 -99 -88 0 -4 -9 -13 -20 -20 -25 -15 -27 1 -2 26 9 11 31
34 47 52 l30 33 -28 -5 -28 -5 23 25 c22 24 10 22 -22 -3 -8 -7 -50 -25 -92
-40 -43 -15 -78 -32 -78 -37 0 -27 23 -48 51 -48 16 0 43 -7 58 -15 64 -33
153 -57 175 -48 11 5 39 6 61 2 107 -20 125 -21 125 -12 0 6 -14 16 -31 24
-30 12 -31 13 -13 27 11 9 15 16 8 19 -6 2 -20 11 -30 19 -19 15 -18 15 1 11
11 -3 29 -8 40 -13 17 -7 18 -6 7 8 -9 12 15 7 93 -18 57 -18 123 -32 145 -31
40 1 51 10 28 21 -7 3 9 3 36 -1 39 -4 48 -3 44 8 -2 8 -17 15 -31 17 -15 2
-27 10 -27 17 0 28 -129 71 -143 48 -8 -13 -168 -6 -181 7 -12 12 -6 13 96 14
66 1 81 4 99 23 l22 22 -55 24 c-31 14 -67 28 -80 32 -33 9 -108 49 -108 57 0
4 12 3 28 -2 15 -5 47 -15 72 -23 25 -8 62 -17 82 -21 38 -7 38 -7 26 19 -6
14 -18 25 -25 25 -8 0 -11 -4 -8 -10 3 -5 1 -10 -4 -10 -6 0 -11 4 -11 9 0 8
-45 22 -115 36 -16 3 -44 13 -61 22 -32 16 -71 12 -59 -7 8 -14 -18 -13 -32 1
-15 15 -155 -17 -182 -42 -34 -31 -28 -49 10 -29 10 6 19 7 19 2 0 -5 24 -9
53 -8 76 2 74 -18 -3 -26 -36 -3 -78 -11 -93 -17 -16 -6 -39 -11 -51 -11 -13
0 -29 -7 -36 -16 -8 -8 -22 -20 -33 -26 -17 -9 -19 -8 -14 6 4 9 2 16 -3 16
-23 0 -6 20 40 49 55 34 65 37 54 19 -5 -9 -2 -9 9 1 24 19 21 31 -9 31 -19 0
-48 -21 -107 -77 -45 -43 -89 -87 -99 -98 -10 -12 -17 -15 -18 -7 0 7 9 20 20
29 26 23 25 32 -2 26 l-23 -6 23 25 c12 13 22 27 22 31 0 11 -38 8 -45 -3 -3
-5 -14 -10 -23 -10 -11 0 -6 10 18 35 38 40 37 41 -15 19 -40 -16 -106 -16
-112 2 -2 6 15 23 37 38 40 26 53 56 25 56 -8 0 -15 4 -15 9 0 6 16 7 36 4 33
-6 36 -4 32 18 -2 18 1 23 13 21 16 -2 46 24 37 33 -3 3 -25 -2 -48 -10 -62
-22 -87 -9 -32 15 23 10 42 24 42 29 0 6 -17 20 -37 31 -32 17 -34 19 -10 14
16 -4 27 -2 27 4 0 13 -18 18 -82 28 -27 3 -48 9 -48 13 0 11 60 30 76 24 8
-3 14 0 14 7 0 7 10 10 28 6 21 -4 35 2 67 30 l40 36 -40 -6 c-22 -3 -50 -8
-62 -12 -17 -5 -25 -1 -30 12 -3 11 -11 22 -17 27 -16 11 12 26 38 19 11 -3
18 -2 14 3 -13 13 22 37 59 40 112 11 153 31 64 32 -27 1 -59 6 -71 13 -12 7
-49 13 -80 13 -46 1 -56 4 -48 14 6 7 17 13 24 13 8 0 14 6 14 13 0 24 72 55
145 62 39 4 86 14 105 22 19 9 70 24 113 34 51 11 88 26 104 41 20 18 37 23
86 24 34 1 69 4 77 7 78 24 126 30 300 32 153 3 186 1 152 -7 -43 -11 -54 -36
-14 -30 15 2 22 -2 22 -12 0 -16 41 -32 57 -23 4 2 38 1 74 -4 43 -6 76 -6 93
1 43 16 30 30 -28 30 -65 0 -146 10 -146 19 0 3 17 17 38 30 29 20 51 25 107
26 39 1 86 7 106 14 25 8 70 9 145 5 60 -4 148 -7 196 -7 60 0 88 -4 92 -12 2
-7 24 -15 48 -19 70 -11 193 -74 176 -91 -2 -2 -32 9 -68 25 -78 34 -150 44
-150 20 0 -12 41 -29 81 -34 16 -2 52 -15 81 -28 29 -14 66 -31 81 -37 15 -6
25 -16 22 -21 -3 -6 4 -10 18 -10 27 0 170 -96 162 -109 -2 -5 16 -28 41 -51
25 -23 43 -44 41 -46 -3 -3 -11 1 -18 8 -8 8 -31 24 -51 37 -21 12 -42 30 -47
38 -4 9 -24 17 -42 18 -49 3 -143 23 -222 46 -38 12 -70 19 -73 16 -7 -7 60
-47 79 -47 22 0 33 -20 16 -30 -10 -7 -10 -11 1 -24 17 -21 5 -33 -15 -16 -9
7 -28 14 -43 15 -15 2 -54 7 -87 13 -33 6 -87 14 -120 17 -82 8 -125 14 -156
20 -19 4 -28 1 -32 -9 -8 -19 -37 -21 -37 -3 0 8 -3 8 -9 -2 -5 -8 -26 -16
-47 -18 -21 -2 -41 -6 -43 -9 -13 -13 29 -24 78 -22 37 2 55 -1 59 -10 3 -10
-11 -12 -64 -9 -64 5 -239 -18 -256 -32 -4 -4 20 -5 55 -3 34 2 73 -1 87 -7
l25 -9 -30 -7 c-19 -4 -37 -18 -47 -36 -10 -16 -28 -34 -40 -39 -18 -7 -12 -9
32 -9 32 -1 72 -9 95 -20 40 -19 151 -56 170 -56 6 0 10 -5 10 -10 0 -6 -2 -9
-5 -9 -48 13 -82 14 -78 3 6 -18 59 -40 143 -60 22 -5 54 -16 72 -24 17 -8 41
-15 54 -15 l22 0 -23 20 c-13 11 -30 20 -39 21 -9 0 -11 3 -4 5 14 6 67 -20
94 -47 23 -23 27 -48 4 -29 -9 7 -18 10 -21 7 -8 -8 58 -66 74 -67 14 0 63
-32 96 -61 10 -10 23 -16 30 -14 6 3 20 -2 30 -10 16 -12 17 -17 5 -31 -12
-15 -8 -22 36 -60 42 -37 47 -44 28 -44 -12 0 -26 8 -32 17 -5 10 -13 15 -17
10 -4 -4 0 -15 9 -25 10 -10 17 -24 17 -30 0 -6 10 -12 23 -14 12 -2 21 -7 19
-12 -2 -5 7 -16 20 -25 56 -38 67 -53 52 -68 -15 -15 -8 -37 19 -65 19 -20 57
-75 57 -84 0 -4 -12 3 -26 17 l-26 24 7 -25 c4 -14 10 -31 12 -37 3 -7 0 -13
-6 -13 -6 0 -16 12 -22 28 -17 46 -70 122 -85 122 -19 0 -51 33 -46 48 5 15
-68 78 -86 74 -8 -2 -11 1 -8 7 4 5 -2 16 -13 23 -10 7 -20 22 -22 33 -6 28
-67 43 -172 44 -49 1 -86 5 -83 10 6 9 -25 19 -80 27 -26 3 -33 0 -38 -19 -5
-18 -8 -19 -15 -7 -5 8 -8 17 -5 21 5 9 -22 19 -52 19 -14 0 -22 -4 -19 -10 3
-5 17 -10 29 -10 15 0 26 -7 29 -20 8 -32 -53 -63 -125 -64 -46 -1 -58 -4 -55
-16 2 -14 -71 -58 -100 -59 -15 -1 -18 -21 -3 -21 6 0 21 6 33 14 12 7 35 17
51 20 27 7 28 6 15 -11 -36 -45 -44 -53 -53 -53 -5 0 -28 -9 -50 -19 -23 -10
-59 -25 -81 -32 l-40 -14 33 -3 c19 -2 41 0 50 4 10 4 27 6 40 5 13 -2 30 3
38 10 8 6 17 9 21 5 14 -14 -29 -40 -92 -56 -51 -13 -69 -22 -79 -41 -6 -13
-17 -24 -24 -24 -7 0 -11 -4 -9 -10 3 -14 99 -8 108 7 4 7 11 9 15 6 4 -4 15
-3 26 3 13 7 29 7 49 0 20 -7 28 -7 23 0 -3 6 3 13 15 16 25 6 27 21 5 30 -12
4 -13 8 -3 14 7 4 18 5 24 1 12 -8 105 -11 105 -4 0 17 -41 45 -87 58 -29 8
-53 20 -53 25 0 6 5 7 10 4 6 -3 10 -1 10 5 0 31 128 43 161 14 19 -17 38 -19
21 -2 -22 22 -12 27 17 10 48 -27 46 -7 -3 42 -25 25 -46 52 -46 61 0 24 46
18 90 -11 22 -15 46 -24 55 -20 8 3 15 1 15 -5 0 -20 145 -75 155 -58 9 13 45
-8 45 -26 0 -8 -5 -15 -11 -15 -27 0 6 -18 43 -24 24 -4 50 -11 58 -17 13 -9
12 -10 -2 -5 -10 3 -20 1 -24 -5 -3 -6 3 -13 15 -16 11 -3 23 -14 26 -24 4
-10 11 -19 16 -19 12 0 12 17 -1 25 -5 3 -10 11 -10 16 0 6 12 -3 26 -20 14
-17 23 -35 19 -41 -3 -5 1 -10 10 -10 22 0 13 40 -17 82 -11 16 -18 31 -16 34
6 5 51 -61 61 -90 8 -20 -8 -46 -28 -46 -7 0 -39 25 -70 55 -32 30 -66 55 -76
55 -9 0 -24 7 -33 15 -19 19 -32 19 -40 -1 -6 -17 2 -30 58 -86 22 -22 31 -26
37 -16 7 10 7 -11 0 -52 -1 -3 -5 1 -10 9 -6 9 -11 10 -15 2 -4 -6 -2 -11 3
-11 6 0 11 -7 11 -15 0 -13 4 -14 20 -5 14 8 20 8 20 0 0 -6 8 -9 18 -6 13 4
19 1 19 -9 0 -14 -14 -19 -47 -16 -11 1 -11 -1 3 -9 21 -13 22 -30 3 -30 -17
0 -66 -56 -66 -74 0 -8 -18 -25 -40 -40 -23 -15 -50 -41 -60 -59 -27 -43 -143
-186 -152 -187 -19 -1 -5 34 23 57 23 19 27 28 17 34 -10 6 -4 18 24 46 55 57
75 101 70 150 l-4 43 -67 -4 c-36 -2 -68 -5 -71 -6 -9 -5 -24 -8 -48 -9 -13 0
-20 -5 -17 -11 8 -13 48 -13 61 0 8 8 15 6 24 -5 16 -20 27 -19 33 3 4 14 5
13 5 -3 0 -11 -4 -31 -8 -45 -7 -23 -8 -23 -9 -4 -1 15 -10 24 -26 28 -27 7
-65 -8 -65 -24 0 -6 -7 -10 -15 -10 -21 0 -19 -16 5 -40 11 -11 20 -25 20 -32
0 -6 7 -20 17 -30 9 -10 13 -21 9 -26 -5 -4 -21 9 -37 28 -25 29 -35 34 -69
33 -22 -1 -40 2 -40 8 0 5 -7 9 -15 9 -25 0 -17 -16 26 -55 23 -20 42 -48 44
-61 2 -20 0 -22 -12 -13 -7 7 -16 9 -20 5 -10 -10 52 -81 73 -84 10 -2 29 -8
41 -14 17 -9 20 -15 13 -34 -6 -14 -5 -26 0 -29 19 -12 10 -22 -20 -23 -17 0
-30 5 -30 11 0 8 -3 8 -9 -1 -5 -8 -30 -14 -65 -15 -31 -1 -56 -3 -56 -5 0 -1
14 -8 30 -14 25 -8 28 -13 19 -24 -9 -11 -6 -14 15 -14 16 0 25 -4 21 -10 -3
-5 1 -10 10 -10 13 0 14 -4 5 -20 -8 -15 -7 -27 5 -49 8 -17 15 -36 15 -43 0
-7 9 -19 20 -26 11 -7 20 -19 20 -28 0 -9 5 -12 13 -8 9 5 9 4 1 -5 -8 -9 -2
-21 23 -49 48 -52 75 -100 60 -106 -7 -2 -2 -5 10 -5 12 -1 34 -13 48 -28 21
-22 25 -35 20 -60 -4 -21 1 -43 15 -67 11 -20 16 -36 12 -36 -10 0 21 -20 32
-20 5 0 2 8 -8 19 -15 16 -15 19 -1 31 14 11 19 7 16 -12 0 -5 6 -8 15 -8 10
0 14 -6 11 -14 -4 -10 -1 -13 8 -9 8 3 12 9 9 14 -3 5 2 9 10 9 19 0 48 29 41
41 -4 5 -2 9 3 9 6 0 12 -6 15 -14 4 -9 14 -12 26 -9 12 3 21 1 21 -6 0 -6 6
-11 14 -11 8 0 16 -7 20 -15 3 -8 11 -15 18 -15 10 0 10 2 1 8 -9 6 -7 11 6
19 16 10 18 9 14 -8 -5 -17 -2 -19 20 -14 15 4 28 2 32 -6 5 -8 4 -10 -3 -5
-7 4 -12 2 -12 -3 0 -17 27 -13 34 5 5 13 9 14 21 4 8 -7 15 -19 15 -26 0 -8
7 -14 15 -14 8 0 15 -5 15 -11 0 -6 -9 -9 -20 -6 -11 3 -20 1 -20 -4 0 -8 15
-13 32 -10 5 0 6 -9 4 -22 -3 -12 -5 -29 -5 -37 -1 -13 -2 -13 -11 0 -8 13
-11 12 -24 -5 -23 -30 -19 -45 10 -43 27 3 49 31 38 49 -4 7 1 10 12 7 13 -2
19 -12 20 -31 1 -15 -1 -25 -4 -22 -3 2 -18 -5 -35 -17 -17 -12 -41 -21 -53
-20 -12 1 -27 -5 -33 -12 -10 -12 -7 -14 14 -12 16 2 24 -1 23 -10 -2 -7 0
-13 5 -13 24 -2 28 1 22 19 -5 16 -2 20 19 20 15 0 25 -5 23 -12 -1 -6 7 -13
18 -15 l20 -3 -20 9 c-11 5 -16 10 -11 10 5 1 3 7 -3 15 -8 10 -9 16 -1 21 5
3 10 2 10 -4 0 -6 7 -7 17 -4 12 5 14 3 8 -8 -6 -11 -5 -12 6 -1 19 18 26 15
33 -13 4 -14 11 -25 17 -25 6 0 8 4 5 9 -3 5 0 11 8 14 22 9 27 -19 7 -45 -10
-13 -21 -32 -25 -42 -5 -15 -4 -17 8 -7 17 15 29 0 19 -25 -5 -13 -3 -15 7 -9
10 6 12 4 7 -8 -3 -10 -2 -17 4 -17 6 0 8 -4 4 -9 -3 -5 -1 -12 4 -15 5 -4 8
5 7 18 -2 18 1 22 15 19 15 -4 17 1 15 36 -3 35 -1 39 14 31 20 -11 57 11 47
27 -10 16 27 11 41 -6 10 -13 11 -13 7 -1 -6 18 37 41 55 30 9 -6 9 -9 -1 -13
-8 -3 -2 -6 14 -6 15 -1 27 -5 27 -9 0 -8 7 -10 50 -14 11 -1 19 -7 16 -13 -6
-18 23 -49 47 -50 15 0 21 -5 19 -18 -2 -12 7 -21 27 -28 29 -10 30 -13 28
-64 -2 -29 -10 -61 -18 -71 -8 -11 -9 -15 -1 -10 13 8 17 -6 5 -18 -5 -4 -9
-11 -9 -14 -6 -28 -18 -51 -24 -47 -5 3 -6 -4 -3 -15 4 -14 -6 -30 -31 -55
-20 -20 -34 -40 -31 -45 3 -6 2 -10 -4 -10 -5 0 -11 3 -14 8 -2 4 -2 1 0 -6 8
-32 -57 -62 -82 -37 -14 14 -35 57 -40 82 -2 12 -8 31 -14 42 -6 11 -8 27 -4
37 5 13 3 15 -7 9 -9 -5 -11 -4 -6 4 8 12 -18 44 -28 34 -3 -3 -12 -1 -19 5
-8 7 -17 9 -20 5 -4 -3 -7 -2 -7 4 0 6 -6 13 -14 16 -10 4 -14 0 -11 -12 2
-14 -1 -17 -14 -14 -13 3 -17 13 -15 39 2 19 6 39 9 44 10 17 -4 11 -25 -10
-17 -17 -18 -20 -3 -28 11 -6 12 -11 4 -16 -6 -4 -11 -2 -11 5 0 9 -4 9 -15
-1 -8 -6 -20 -8 -27 -4 -7 4 -10 4 -6 -1 4 -4 3 -14 -3 -22 -6 -7 -8 -13 -3
-13 5 -1 -6 -7 -24 -15 -18 -8 -31 -18 -28 -23 3 -5 -4 -15 -14 -22 -13 -10
-16 -18 -10 -26 11 -12 -12 -69 -23 -58 -3 4 -9 -5 -13 -20 -5 -20 -12 -26
-33 -26 -15 0 -31 -8 -39 -20 -7 -11 -23 -20 -37 -20 -14 0 -25 -5 -25 -10 0
-6 -6 -5 -14 2 -7 7 -12 18 -9 24 2 7 0 15 -6 19 -6 3 -11 -2 -11 -12 0 -25
-19 -43 -36 -36 -10 4 -12 0 -8 -11 4 -11 1 -16 -11 -16 -12 0 -16 6 -12 20 3
11 0 20 -6 20 -9 0 -9 2 0 8 8 5 9 12 2 22 -8 13 -10 13 -18 0 -5 -8 -8 -17
-6 -20 2 -3 -8 -7 -23 -8 -14 -1 -29 -7 -33 -14 -4 -6 -14 -8 -22 -5 -9 3 -18
-1 -21 -8 -3 -8 -12 -12 -21 -9 -13 5 -18 -3 -17 -26 0 -3 -25 -5 -56 -5 -32
0 -63 -4 -69 -9 -7 -4 -20 -6 -29 -2 -8 3 -27 0 -42 -7 -15 -8 -34 -12 -43
-10 -9 2 -21 -3 -28 -11 -10 -11 -19 -13 -38 -5 -14 5 -40 7 -57 4 -17 -3 -68
-7 -113 -9 -79 -3 -83 -4 -116 -40 -19 -20 -39 -37 -46 -37 -6 -1 -15 -3 -21
-4 -5 -1 -20 -3 -33 -4 -30 -1 -67 -30 -49 -38 17 -7 62 -48 62 -57 0 -3 -12
-6 -26 -6 -14 0 -23 4 -19 10 3 6 -4 10 -17 10 -18 0 -20 -2 -8 -10 8 -5 12
-11 10 -13 -13 -11 -523 -87 -580 -87 -87 1 -185 13 -360 43 -80 14 -210 33
-290 41 -168 19 -391 45 -436 51 -193 27 -484 36 -704 23 -151 -9 -164 -24
-83 -95 56 -48 145 -94 140 -71 -1 8 24 12 79 14 45 1 90 5 102 8 11 4 38 -1
60 -9 30 -12 46 -14 60 -6 11 6 21 8 24 6 3 -3 31 -7 64 -10 32 -3 66 -8 74
-10 9 -3 29 -1 46 4 72 20 278 -37 389 -109 58 -37 64 -39 170 -45 196 -11
423 -44 580 -84 l30 -8 -38 -8 c-21 -4 -60 -15 -85 -24 -39 -14 -48 -22 -50
-44 -2 -15 2 -27 8 -27 6 0 9 -4 5 -9 -7 -12 33 -26 60 -22 11 2 26 8 34 14
12 10 13 9 6 -2 -6 -11 1 -13 46 -7 30 4 66 8 82 9 21 1 27 7 27 24 0 12 9 27
20 33 11 6 20 18 20 26 0 8 4 13 9 10 5 -3 12 -48 16 -98 32 -452 58 -579 141
-704 81 -122 261 -213 452 -229 37 -3 90 -8 119 -11 l51 -5 -4 -37 c-3 -20 -7
-46 -9 -57 -2 -11 -4 -23 -4 -26 -1 -4 -10 -9 -20 -12 -12 -3 -18 -12 -16 -23
1 -11 -3 -28 -10 -39 -15 -25 -25 -74 -15 -80 12 -7 -1 -58 -20 -80 -11 -14
-15 -28 -10 -45 4 -16 1 -34 -9 -50 -12 -18 -13 -22 -2 -16 11 7 13 4 7 -18
-5 -19 -3 -26 8 -26 9 0 13 -6 10 -14 -3 -8 -1 -23 5 -33 10 -17 11 -16 17 4
3 13 10 20 15 17 5 -3 9 0 9 5 0 6 3 10 8 9 12 -5 106 93 142 147 41 62 117
135 142 135 10 0 17 -5 15 -12 -1 -6 10 -13 26 -14 15 -2 25 0 23 4 -3 4 4 8
15 8 10 0 19 -4 19 -9 0 -14 149 -2 240 20 234 56 350 94 350 113 0 29 -107
73 -157 65 -107 -17 -246 -89 -279 -144 -10 -17 -21 -31 -25 -31 -4 0 -34 14
-68 31 -78 40 -97 81 -88 197 7 88 1 81 129 149 l78 42 -25 -43 c-14 -24 -25
-53 -25 -65 0 -20 10 -14 72 41 105 93 152 141 164 168 56 126 115 228 169
297 65 82 138 143 172 143 38 -1 122 -97 107 -122 -3 -5 4 -20 15 -32 16 -17
23 -40 26 -81 3 -32 9 -63 15 -70 5 -6 6 -16 2 -20 -4 -5 -2 -5 5 -1 16 9 59
-82 45 -96 -12 -12 21 -48 44 -48 12 0 14 -3 6 -12 -5 -7 -9 -33 -7 -57 1 -30
-4 -55 -16 -75 -11 -17 -19 -41 -19 -52 0 -22 -24 -39 -40 -29 -11 7 -21 -21
-14 -39 3 -8 -5 -25 -18 -39 -13 -14 -36 -43 -53 -65 -16 -22 -37 -43 -45 -46
-8 -4 -40 -20 -70 -36 -35 -18 -71 -29 -97 -29 -24 -1 -43 -6 -43 -12 0 -6
-28 -37 -62 -69 -53 -51 -60 -61 -48 -75 9 -11 15 -12 20 -5 12 19 50 -57 50
-98 0 -39 -17 -112 -26 -112 -9 0 -34 28 -34 38 0 12 -49 57 -55 50 -3 -3 2
-24 10 -47 8 -24 12 -54 9 -67 -14 -57 -34 -6 -36 96 -2 50 0 55 18 53 17 -2
20 3 16 28 -2 16 -8 31 -12 34 -12 7 -40 -53 -40 -83 0 -24 -1 -24 -19 -8 -18
17 -20 16 -26 -4 -5 -15 0 -29 17 -47 19 -21 24 -37 27 -105 2 -53 0 -78 -7
-74 -6 3 -8 15 -5 25 3 10 0 22 -6 25 -6 4 -11 25 -11 46 0 21 -5 42 -12 46
-6 4 -8 3 -5 -2 3 -6 2 -15 -2 -22 -11 -18 -28 22 -38 92 -6 45 -12 60 -25 62
-26 3 -52 -56 -43 -98 10 -47 44 -92 59 -79 6 5 16 7 22 3 15 -10 24 -85 12
-105 -14 -25 -28 -20 -28 10 0 14 -3 23 -7 19 -4 -4 -6 -27 -4 -52 2 -36 -2
-48 -21 -64 -13 -11 -29 -19 -35 -20 -7 0 -13 -4 -13 -10 0 -5 -10 -10 -22
-10 -13 0 -36 -9 -53 -20 -16 -11 -42 -20 -57 -20 -15 0 -29 -4 -32 -9 -3 -5
-15 -7 -27 -4 -15 4 -20 12 -17 28 3 15 -2 27 -15 35 -18 11 -19 10 -13 -14 5
-20 3 -26 -10 -26 -9 0 -22 -8 -29 -17 -11 -14 -15 -15 -28 -4 -9 7 -14 18
-11 26 3 7 1 16 -4 19 -14 9 -23 -21 -16 -51 6 -23 4 -25 -15 -20 -19 5 -25
-1 -39 -31 l-16 -37 -6 35 c-3 19 -11 43 -17 54 -9 16 -12 8 -23 -48 -8 -36
-18 -66 -23 -66 -5 0 -6 -11 -3 -24 4 -16 -3 -42 -20 -76 -24 -49 -43 -157
-25 -146 5 3 11 -12 15 -33 3 -21 12 -41 20 -44 8 -3 18 -26 21 -50 9 -55 18
-70 41 -65 20 3 34 58 15 58 -6 0 -11 9 -11 21 0 11 -4 17 -10 14 -16 -10 -12
7 7 27 11 12 16 33 15 61 -1 36 20 99 30 89 2 -2 16 1 31 7 36 14 73 14 99 0
11 -6 50 -13 86 -16 37 -2 74 -9 84 -14 20 -11 21 -8 18 54 -2 43 26 95 42 79
6 -6 3 -23 -8 -48 -17 -38 -18 -44 -15 -81 1 -15 4 -14 17 5 12 18 19 21 30
11 12 -10 13 -4 8 34 -10 72 0 97 39 97 28 0 36 -5 50 -35 21 -44 21 -59 1
-79 -14 -15 -14 -16 0 -16 14 0 20 -12 17 -32 0 -5 9 -8 20 -8 17 0 19 -3 10
-14 -14 -16 -4 -46 15 -47 34 -3 39 -6 36 -19 -3 -12 -1 -13 9 -2 18 17 32 15
25 -4 -6 -15 -4 -15 10 -3 14 12 16 9 13 -21 -4 -35 -41 -80 -66 -80 -12 0
-34 -33 -32 -47 1 -4 1 -10 0 -13 -1 -3 -4 -27 -6 -55 -2 -27 -10 -93 -19
-145 -10 -65 -11 -100 -4 -113 11 -21 3 -67 -12 -67 -6 0 -10 5 -10 12 0 7 -3
8 -9 2 -13 -13 -22 -132 -11 -139 6 -4 10 -13 10 -22 0 -9 -3 -13 -7 -10 -10
11 -53 -55 -53 -82 0 -18 3 -22 9 -13 15 25 21 -14 10 -72 -17 -93 -18 -219
-1 -232 16 -12 16 -14 -44 -113 l-31 -52 -5 63 c-3 35 -4 89 -4 121 1 43 -2
57 -12 57 -12 0 -12 3 -2 15 7 9 13 32 12 52 -1 21 5 44 12 52 11 13 11 24 2
56 l-12 40 -14 -25 c-7 -14 -28 -41 -47 -60 -19 -20 -33 -45 -33 -59 0 -24 -1
-24 -17 -9 -14 15 -14 19 -2 34 12 15 12 17 -1 12 -8 -2 -17 -18 -21 -34 -3
-16 -18 -42 -32 -56 -15 -15 -27 -32 -27 -38 0 -14 -72 -85 -83 -82 -4 1 -19
-11 -33 -28 -14 -16 -32 -30 -39 -30 -7 0 -18 -6 -24 -14 -12 -15 -51 -145
-55 -186 -2 -14 -4 -31 -4 -37 -1 -7 -7 -13 -13 -13 -12 0 -11 9 12 108 10 45
10 55 -3 65 -22 17 -31 74 -13 74 8 0 17 -9 21 -19 9 -29 21 -21 27 20 4 20 9
49 13 65 5 23 4 26 -11 21 -16 -7 -17 -2 -10 42 10 71 27 92 19 24 -4 -30 -3
-52 1 -47 26 23 61 264 42 284 -4 3 -7 -1 -7 -10 0 -24 -22 -67 -31 -61 -5 3
-21 -21 -35 -53 -18 -39 -28 -52 -31 -40 -3 9 -9 15 -14 11 -6 -4 -6 -10 1
-19 6 -8 7 -21 2 -36 -5 -13 -7 -44 -5 -69 l4 -45 -20 38 c-11 21 -18 44 -16
50 2 7 6 49 9 95 4 65 2 82 -9 82 -19 0 -34 -17 -80 -93 -22 -36 -48 -68 -57
-70 -19 -5 -25 8 -8 18 6 4 9 30 8 59 -3 44 -6 52 -23 54 -20 1 -65 -34 -65
-51 0 -6 -12 -26 -26 -45 -20 -26 -29 -31 -35 -21 -5 8 -6 26 -3 41 4 22 2 27
-9 22 -11 -4 -19 5 -28 29 -17 49 -48 47 -82 -5 -25 -39 -26 -39 -37 -18 -9
16 -9 25 -1 33 6 6 11 20 11 31 -1 20 -1 20 -14 4 -22 -29 -35 -21 -29 17 4
27 2 35 -9 35 -8 0 -18 -3 -22 -7 -4 -4 -13 -8 -19 -9 -31 -3 -57 -18 -57 -32
0 -13 3 -12 20 3 18 16 20 17 26 1 7 -17 -24 -49 -38 -39 -5 2 -15 -3 -24 -11
-15 -16 -34 -21 -34 -11 0 3 6 16 14 28 18 28 30 87 19 87 -16 0 -54 -60 -47
-72 4 -6 3 -8 -3 -5 -6 4 -21 -2 -34 -12 -13 -10 -31 -18 -40 -18 -27 0 -8 50
22 57 21 6 24 11 21 50 -3 53 -5 55 -31 40 -12 -6 -21 -21 -21 -34 0 -33 -35
-63 -54 -47 -8 7 -20 10 -26 6 -5 -3 -10 -2 -10 3 0 8 -90 42 -113 42 -6 0
-18 6 -26 13 -9 7 -41 21 -71 31 -54 18 -170 77 -298 150 -35 20 -70 36 -78
36 -8 0 -14 4 -14 8 0 4 -30 25 -67 47 -417 239 -626 388 -803 571 -143 148
-162 180 -227 374 -31 93 -34 112 -28 171 4 44 3 69 -4 73 -27 17 -91 -149
-91 -235 0 -27 9 -93 21 -146 24 -111 22 -139 -19 -249 -17 -44 -38 -121 -47
-170 -18 -89 -18 -89 -80 -149 -97 -94 -116 -125 -179 -297 -17 -45 -21 -49
-73 -64 -80 -23 -166 -77 -215 -134 -38 -44 -48 -50 -81 -50 -70 0 -110 -34
-136 -113 -7 -20 -21 -42 -31 -47 -11 -6 -75 -19 -142 -30 -68 -10 -163 -26
-213 -35 -49 -9 -114 -20 -144 -25 -101 -17 -486 -102 -641 -142 -164 -42
-356 -101 -480 -148 -195 -74 -280 -85 -509 -69 -198 14 -375 8 -477 -16 -38
-9 -89 -21 -114 -27 -72 -17 -306 -117 -396 -168 -268 -156 -499 -382 -689
-680 -57 -89 -206 -377 -260 -505 -298 -703 -373 -955 -466 -1560 -14 -90 -36
-218 -54 -320 -8 -44 -20 -109 -25 -145 -6 -36 -15 -85 -20 -110 -6 -25 -22
-100 -35 -168 -23 -113 -63 -275 -115 -462 -11 -41 -24 -96 -30 -121 -14 -73
-49 -218 -70 -294 -10 -38 -31 -117 -45 -175 -15 -58 -42 -164 -61 -237 -46
-171 -78 -334 -100 -498 -3 -16 -6 -217 -9 -445 -4 -453 -11 -598 -35 -825
-19 -186 -26 -224 -42 -242 -56 -62 -145 -267 -174 -400 -29 -133 -19 -687 16
-969 6 -46 6 -84 -1 -105 -37 -128 -63 -324 -56 -428 9 -144 59 -323 121 -439
8 -15 17 -34 21 -42 5 -14 21 -39 116 -181 20 -30 53 -68 75 -86 21 -17 84
-67 139 -111 171 -136 296 -279 400 -454 122 -208 156 -257 196 -289 22 -17
65 -66 96 -108 104 -142 304 -351 377 -395 19 -12 108 -70 198 -130 228 -152
226 -152 293 -181 136 -61 262 -127 295 -156 42 -38 122 -89 204 -133 34 -18
81 -45 106 -61 48 -31 174 -85 197 -85 8 0 38 -11 66 -24 97 -45 172 -74 357
-135 200 -67 308 -105 355 -126 17 -8 82 -37 145 -66 171 -77 220 -101 220
-111 0 -4 7 -8 16 -8 19 0 14 20 -28 105 -16 33 -40 100 -53 149 -26 97 -38
115 -76 120 -99 11 -173 90 -182 194 -4 40 0 62 47 270 14 62 28 134 32 160
19 149 72 285 148 377 22 27 48 58 56 69 8 10 37 44 63 75 27 31 60 76 75 101
49 87 131 177 217 241 25 19 65 49 88 66 23 18 45 33 49 33 22 0 189 144 260
223 45 51 130 140 190 198 101 100 129 121 278 201 151 82 299 189 370 269 80
89 153 144 261 197 135 65 255 77 425 41 105 -22 161 -21 229 6 49 19 216 101
275 136 170 100 324 111 535 37 33 -11 71 -26 85 -34 32 -17 81 -37 150 -64
30 -12 69 -28 85 -35 17 -8 68 -26 115 -40 47 -14 94 -31 105 -37 27 -15 64
-34 95 -48 14 -6 34 -16 45 -23 59 -35 101 -62 105 -66 12 -14 70 -51 79 -51
5 0 23 -13 40 -29 17 -16 31 -27 31 -24 0 7 21 -16 58 -64 19 -24 31 -47 27
-52 -3 -5 1 -13 9 -18 8 -4 15 -12 16 -18 1 -5 11 -27 21 -47 11 -21 16 -38
12 -38 -5 0 -2 -4 5 -8 7 -5 36 -5 65 -1 29 4 102 15 162 24 61 9 178 25 260
35 83 10 257 33 388 50 130 16 344 44 475 60 294 38 669 86 794 103 l93 12 7
90 c4 50 5 131 2 182 l-6 92 55 123 c31 68 72 168 92 223 19 55 40 109 45 120
24 50 143 325 160 370 21 59 131 285 228 470 91 174 119 238 253 579 44 110
187 450 226 536 46 101 160 423 223 630 34 113 66 212 71 221 11 22 94 300
114 387 13 53 24 78 42 92 14 11 29 20 34 20 8 0 205 -124 289 -183 105 -73
414 -363 551 -517 94 -106 289 -301 395 -395 49 -44 139 -125 199 -180 61 -56
144 -129 186 -163 104 -84 198 -187 236 -260 l31 -61 -18 -73 c-10 -40 -35
-143 -57 -228 -22 -85 -45 -180 -52 -210 -7 -30 -19 -77 -26 -105 -14 -49 -52
-205 -81 -335 -8 -36 -21 -87 -29 -115 -8 -27 -16 -59 -18 -70 -2 -11 -9 -38
-15 -60 -6 -22 -15 -60 -21 -85 -6 -25 -27 -115 -47 -200 -38 -160 -51 -218
-83 -355 -10 -44 -41 -181 -70 -305 -28 -124 -54 -235 -56 -246 -7 -34 -69
-47 -505 -109 -51 -7 -401 -61 -655 -100 -121 -18 -251 -36 -290 -40 -392 -35
-3108 -418 -3370 -475 -73 -16 -77 -20 -63 -61 6 -19 14 -36 18 -39 4 -3 16
-39 25 -80 10 -41 23 -84 28 -95 10 -19 17 -63 19 -112 0 -12 7 -24 15 -27 8
-3 11 -10 8 -16 -4 -6 1 -24 9 -42 20 -39 20 -44 -1 -27 -15 13 -15 12 -2 -9
12 -19 20 -21 62 -16 27 3 58 9 70 13 12 5 27 9 32 10 6 1 19 4 30 6 17 3 140
25 280 50 17 3 77 12 135 21 108 15 310 47 415 64 130 21 314 50 388 59 43 6
110 18 150 26 40 8 110 18 157 21 47 3 101 12 120 19 19 7 51 16 70 19 19 3
46 7 60 10 14 3 68 10 120 16 52 6 131 17 175 25 44 8 157 26 250 40 94 14
190 30 215 36 25 6 90 14 145 19 104 9 229 29 350 55 99 21 156 19 244 -9 42
-14 129 -41 193 -61 105 -32 119 -39 133 -66 9 -17 15 -35 12 -42 -2 -6 -69
-21 -153 -33 -82 -12 -228 -34 -324 -48 -96 -15 -236 -36 -310 -47 -130 -19
-354 -55 -395 -63 -11 -2 -40 -7 -65 -10 -81 -12 -219 -35 -565 -91 -187 -31
-394 -65 -460 -75 -66 -10 -282 -46 -480 -80 -356 -60 -503 -83 -600 -95 -99
-12 -167 -26 -240 -50 -42 -14 -84 -25 -95 -25 -25 0 -35 -17 -20 -35 6 -8 8
-20 4 -26 -8 -14 11 -4 39 20 16 13 18 13 15 1 -2 -8 -6 -17 -10 -20 -3 -3 4
-16 15 -30 22 -25 35 -28 135 -31 17 -1 35 -5 38 -10 3 -5 16 -9 30 -9 14 0
41 -9 62 -19 47 -25 142 -114 142 -134 0 -8 7 -18 16 -21 9 -3 14 -13 11 -20
-3 -8 -2 -16 3 -18 5 -2 12 -33 15 -70 4 -56 2 -68 -10 -68 -8 0 -15 -5 -15
-11 0 -5 6 -7 13 -4 6 4 1 -2 -12 -13 -15 -12 -22 -25 -18 -36 4 -9 2 -16 -3
-16 -6 0 -10 9 -10 20 0 13 -5 18 -15 13 -14 -5 -14 -8 0 -29 8 -13 11 -24 5
-24 -5 0 -10 5 -10 10 0 6 -5 10 -11 10 -5 0 -7 -4 -4 -10 3 -5 1 -10 -4 -10
-6 0 -11 5 -11 12 0 6 -2 9 -5 6 -9 -8 6 -38 16 -32 14 8 11 -8 -5 -25 -20
-22 -31 -71 -17 -71 6 0 11 -5 11 -11 0 -6 -10 -8 -22 -5 -13 3 -17 3 -10 0 6
-3 12 -10 12 -15 0 -6 -6 -7 -12 -3 -7 4 -4 -3 7 -16 12 -14 14 -20 5 -15 -13
8 -13 7 -1 -8 7 -9 9 -17 3 -17 -5 0 -12 -9 -15 -20 -3 -13 -1 -18 5 -13 6 3
8 2 5 -4 -8 -13 -18 -77 -20 -125 -1 -20 -5 -34 -9 -31 -7 4 -13 -27 -9 -49 0
-4 -6 -5 -15 -1 -14 5 -14 3 -3 -16 12 -17 12 -25 1 -42 -11 -17 -11 -20 0
-14 7 3 4 -1 -6 -9 -11 -9 -15 -16 -8 -16 8 0 9 -7 2 -25 -5 -14 -6 -25 -2
-25 13 0 -23 -20 -37 -20 -8 0 -11 6 -7 15 3 8 3 15 0 15 -2 0 -9 -11 -14 -24
-7 -18 -14 -23 -29 -19 -22 6 -28 27 -11 38 5 3 10 11 10 16 0 6 -5 7 -10 4
-15 -9 -43 23 -36 41 3 8 2 12 -4 9 -13 -8 -13 31 1 58 10 21 10 21 -5 3 -14
-17 -16 -17 -16 -4 0 9 5 20 11 24 8 5 6 10 -5 16 -19 11 -21 44 -3 51 9 3 9
8 -2 18 -8 9 -11 9 -7 2 5 -9 2 -11 -9 -6 -12 4 -13 8 -5 13 6 4 10 16 8 26
-2 10 2 18 8 17 6 -1 11 3 11 10 0 7 4 21 8 32 5 13 4 16 -2 7 -7 -9 -12 -7
-21 12 -11 26 -2 30 28 11 12 -7 13 -6 3 7 -7 8 -9 18 -5 23 4 4 -4 4 -18 0
l-25 -8 25 21 c14 12 19 21 13 22 -7 0 -13 6 -13 14 0 8 -5 18 -10 21 -6 4
-10 3 -9 -2 4 -20 -2 -34 -12 -28 -6 4 -16 -1 -23 -10 -12 -16 -13 -16 -19 -1
-4 9 -12 16 -19 16 -11 0 -11 -2 0 -8 7 -5 10 -16 6 -25 -3 -9 -10 -15 -14
-12 -9 5 -24 -24 -21 -40 1 -5 -5 -2 -13 8 -8 11 -13 24 -12 30 2 7 1 9 -1 4
-3 -4 -10 -4 -16 0 -7 4 -6 -1 2 -10 9 -12 10 -17 2 -17 -7 0 -10 -4 -7 -8 2
-4 -8 -7 -22 -6 -15 0 -33 -6 -41 -14 -10 -10 -16 -11 -19 -3 -5 15 -27 14
-40 -2 -15 -18 -132 -6 -132 13 0 4 -9 10 -20 13 -11 3 -18 1 -14 -4 3 -5 0
-9 -5 -9 -6 0 -11 6 -11 14 0 12 -44 32 -62 28 -7 -2 -12 21 -9 41 0 4 -6 7
-14 7 -8 0 -15 5 -15 11 0 5 -4 7 -10 4 -9 -6 -54 38 -56 56 -1 5 -2 14 -3 20
0 5 -5 7 -11 4 -6 -3 -7 1 -4 9 3 9 10 16 16 16 5 0 6 5 3 10 -3 6 -2 10 3 10
11 0 22 64 22 117 -1 18 4 33 10 33 7 0 8 6 1 18 -6 11 -10 27 -10 38 0 10 -2
29 -4 42 -2 12 0 46 5 75 15 100 16 117 7 111 -5 -3 -9 0 -9 5 0 6 4 11 9 11
5 0 12 7 15 16 3 8 2 12 -4 9 -10 -6 -19 9 -24 42 -2 12 -11 18 -29 17 -15 0
-24 2 -22 5 7 6 -26 41 -39 41 -6 0 -31 23 -56 51 -25 28 -51 57 -57 64 -7 8
-13 20 -13 29 0 8 -5 18 -11 21 -5 4 -21 30 -34 58 -14 29 -29 60 -35 70 -17
29 -29 51 -46 84 -9 18 -22 37 -30 44 -8 6 -14 18 -14 25 0 8 -4 14 -10 14 -5
0 -10 7 -10 15 0 8 -4 15 -10 15 -5 0 -10 7 -10 15 0 8 -4 15 -10 15 -5 0 -10
7 -10 15 0 8 -5 15 -11 15 -5 0 -8 4 -4 9 3 5 1 13 -5 16 -6 4 -29 46 -51 93
-96 205 -260 385 -369 407 -8 2 -15 4 -15 5 0 1 -10 3 -22 6 -12 2 -28 5 -34
6 -6 2 -16 -9 -21 -23 -7 -21 0 -44 42 -131 27 -58 50 -115 50 -127 0 -12 3
-21 8 -21 4 0 13 -19 20 -42 7 -23 23 -55 35 -72 12 -17 21 -33 20 -36 -5 -11
10 -50 18 -50 5 0 9 -11 9 -24 0 -14 6 -31 13 -38 8 -7 17 -27 21 -43 4 -17
15 -41 24 -55 9 -14 17 -30 18 -37 3 -19 75 -123 85 -123 5 0 9 -4 9 -10 0 -5
18 -33 40 -62 22 -29 40 -59 40 -65 0 -7 5 -13 10 -13 6 0 10 -7 10 -15 0 -8
4 -15 9 -15 5 0 16 -18 25 -40 9 -22 20 -40 26 -40 5 0 10 -7 10 -16 0 -8 13
-35 30 -58 16 -24 26 -46 23 -50 -4 -3 -1 -6 6 -6 7 0 9 -4 6 -10 -3 -5 -1
-10 4 -10 6 0 11 -9 11 -19 0 -11 5 -23 11 -26 6 -4 8 -13 5 -21 -3 -8 0 -14
6 -14 7 0 6 -5 -2 -15 -7 -8 -8 -15 -3 -15 6 0 9 -11 8 -25 -2 -14 0 -25 5
-25 9 0 4 -32 -10 -65 -25 -61 -39 -105 -33 -105 3 0 -1 -8 -9 -17 -15 -17
-33 -64 -29 -72 2 -2 -5 -8 -14 -13 -18 -10 -37 -51 -39 -84 -1 -11 -14 -33
-28 -49 -15 -16 -32 -41 -39 -57 -6 -15 -20 -30 -30 -33 -11 -4 -17 -11 -14
-16 4 -5 -1 -9 -9 -9 -9 0 -16 -5 -16 -12 0 -6 -3 -9 -6 -5 -3 3 -16 -3 -27
-14 -12 -11 -32 -22 -44 -25 -13 -4 -23 -9 -23 -13 0 -4 -8 -8 -17 -9 -30 -3
-47 -7 -58 -13 -5 -4 -34 -7 -62 -8 -69 -2 -165 31 -224 77 -44 35 -119 129
-119 150 0 5 -7 15 -15 22 -8 7 -15 20 -15 29 0 9 -5 22 -12 29 -6 6 -13 17
-14 24 -5 29 -40 113 -49 120 -5 4 -10 11 -10 16 0 11 -27 49 -90 126 -80 98
-138 176 -185 251 -25 39 -48 72 -51 75 -7 5 -21 32 -86 161 -77 151 -153 266
-281 422 -40 48 -126 117 -176 141 -32 15 -39 15 -71 2 -19 -8 -35 -20 -35
-26 0 -7 17 -42 37 -78 20 -37 45 -85 56 -107 11 -22 25 -43 31 -47 6 -5 7 -8
1 -8 -6 0 -6 -3 0 -8 6 -4 26 -36 45 -72 41 -79 124 -191 181 -245 49 -46 129
-151 129 -170 0 -7 5 -15 12 -17 6 -2 12 -11 14 -19 1 -7 8 -40 14 -72 6 -31
9 -61 5 -66 -3 -5 0 -11 6 -13 5 -2 7 -11 4 -21 -4 -9 -11 -15 -15 -12 -5 3
-11 -8 -15 -25 -4 -19 -11 -28 -18 -23 -7 4 -5 -1 3 -11 12 -16 11 -20 -10
-38 -14 -11 -18 -16 -10 -12 13 7 13 5 1 -9 -7 -9 -11 -30 -9 -47 3 -16 0 -30
-5 -30 -5 0 -7 -9 -4 -20 3 -11 2 -20 -3 -20 -9 0 -36 -61 -32 -74 1 -4 -2
-14 -9 -22 -6 -7 -8 -18 -4 -24 3 -6 -3 -10 -14 -10 -13 0 -18 -5 -15 -14 6
-16 -88 -116 -111 -116 -9 0 -14 -4 -11 -8 5 -9 -15 -11 -129 -14 -73 -1 -220
13 -220 22 0 1 -11 3 -25 4 -129 10 -248 72 -300 156 -14 22 -28 40 -32 40 -5
0 -8 5 -8 10 0 20 -196 273 -271 350 -91 93 -115 105 -236 115 -54 5 -114 33
-194 91 -25 19 -49 31 -53 27 -3 -3 -6 -1 -6 5 0 17 -13 15 -37 -7 -12 -11
-24 -17 -27 -14 -3 4 -6 1 -6 -6 0 -7 -5 -9 -11 -6 -6 4 -13 -2 -16 -14 -3
-12 -10 -21 -15 -21 -5 0 -6 -5 -2 -12 4 -7 3 -8 -5 -4 -6 4 -9 12 -6 17 4 5
1 9 -4 9 -6 0 -11 -7 -11 -15 0 -14 -12 -19 -32 -16 -5 0 -8 -6 -8 -15 0 -8
-13 -29 -30 -45 -16 -16 -29 -32 -30 -34 0 -3 -3 -5 -7 -4 -4 0 -15 -15 -25
-35 -10 -20 -23 -36 -28 -36 -5 0 -7 -6 -4 -14 3 -8 0 -17 -5 -21 -6 -3 -9
-11 -6 -16 4 -5 1 -9 -4 -9 -6 0 -11 -6 -11 -14 0 -8 -3 -16 -8 -18 -4 -1 -22
-22 -40 -45 -18 -23 -53 -51 -77 -63 -25 -12 -45 -26 -45 -31 0 -4 -7 -6 -15
-3 -8 4 -15 1 -15 -5 0 -6 -6 -11 -13 -11 -17 0 -49 -34 -42 -43 3 -4 2 -5 -1
-3 -8 6 -54 -40 -54 -54 0 -5 -4 -10 -10 -10 -5 0 -12 -11 -16 -25 -3 -14 -10
-25 -14 -25 -4 0 -11 -16 -14 -35 -4 -19 -11 -35 -16 -35 -5 0 -9 -8 -9 -17
-1 -10 -2 -29 -3 -43 -2 -14 2 -27 7 -29 6 -2 15 -10 20 -17 10 -14 141 -24
160 -12 6 3 23 8 38 12 16 4 46 18 68 31 21 14 43 25 48 25 5 0 14 7 21 15 7
8 19 15 27 15 7 0 24 9 36 21 12 11 30 18 39 15 10 -2 20 0 23 5 3 4 19 6 34
3 16 -4 32 -1 35 5 11 18 26 13 19 -6 -3 -10 -2 -14 2 -10 5 4 15 -3 22 -15
l12 -23 1 25 c0 19 2 22 9 11 6 -9 5 -23 -1 -35 -10 -19 -10 -20 5 -7 22 18
22 7 0 -15 -19 -18 -19 -20 -21 -72 -1 -19 -6 -31 -12 -27 -5 3 -7 0 -4 -8 3
-8 1 -18 -4 -21 -12 -7 -6 -57 8 -66 6 -4 11 -10 11 -14 -3 -24 1 -36 14 -36
8 0 15 -6 15 -14 0 -8 9 -18 20 -21 11 -3 20 -11 20 -16 0 -6 4 -8 9 -5 5 4
23 -5 40 -20 17 -14 35 -23 40 -20 5 4 13 1 17 -5 5 -8 3 -9 -6 -4 -9 5 -11 4
-6 -3 4 -7 14 -12 22 -12 8 0 14 -5 14 -12 0 -6 3 -9 6 -5 4 3 13 0 20 -8 8
-7 22 -12 31 -11 23 4 57 -34 44 -47 -6 -6 -5 -17 4 -31 8 -11 16 -46 18 -76
2 -30 7 -63 11 -72 4 -9 5 -21 2 -27 -4 -5 -2 -12 4 -16 5 -3 10 -17 10 -31 0
-14 4 -23 8 -20 5 3 17 -15 27 -40 10 -24 24 -44 32 -44 7 0 13 -4 13 -10 0
-15 33 -50 48 -50 7 0 15 -7 18 -15 4 -8 12 -15 20 -15 8 0 14 -3 14 -8 0 -4
18 -15 40 -25 22 -9 40 -20 40 -24 0 -5 19 -19 43 -31 23 -13 59 -44 80 -68
20 -25 37 -43 37 -41 0 3 28 -23 63 -57 35 -33 62 -63 60 -65 -1 -2 11 -19 27
-38 17 -18 30 -40 30 -48 0 -8 4 -15 9 -15 8 0 37 -96 45 -150 2 -14 8 -24 13
-23 5 1 9 -20 9 -47 -1 -26 2 -46 6 -44 4 3 5 -11 3 -29 -3 -24 1 -40 15 -54
10 -11 17 -29 16 -39 -2 -11 7 -35 18 -54 12 -19 30 -53 41 -75 11 -22 26 -46
33 -53 6 -7 12 -18 12 -23 0 -6 4 -8 9 -4 5 3 12 -4 16 -15 3 -11 11 -20 16
-20 5 0 9 -6 9 -14 0 -8 6 -16 14 -19 11 -4 13 4 12 36 -1 23 1 50 6 59 4 9 4
18 -2 20 -21 7 16 38 47 41 32 2 49 19 37 38 -3 5 -1 9 5 9 5 0 13 10 17 22
15 50 84 69 120 34 22 -23 85 -113 108 -156 26 -48 34 -58 109 -120 27 -22 45
-40 41 -40 -3 0 -2 -6 3 -12 6 -7 14 -30 17 -51 6 -30 4 -37 -5 -31 -9 5 -10
2 -6 -9 4 -11 1 -17 -8 -17 -8 0 -15 -4 -15 -9 0 -5 -9 -13 -20 -16 -11 -3
-20 -13 -20 -21 0 -19 -39 -18 -47 1 -5 14 -8 14 -27 -2 -19 -16 -19 -16 -7
-1 9 12 10 18 2 18 -6 0 -12 -6 -13 -12 -3 -32 -6 -54 -7 -72 0 -11 -4 -16 -7
-13 -4 3 -14 2 -23 -2 -11 -7 -24 -2 -44 14 -15 13 -27 29 -27 35 0 5 -4 10
-9 10 -5 0 -17 7 -26 16 -13 14 -19 14 -28 4 -9 -10 -9 -11 1 -6 7 5 12 1 12
-9 0 -9 -4 -13 -10 -10 -19 12 -10 -12 20 -53 17 -23 30 -45 30 -49 0 -11 73
-72 138 -116 106 -70 202 -110 342 -142 41 -9 86 -19 100 -22 14 -3 30 -7 35
-8 42 -9 257 -16 440 -15 243 2 276 4 455 25 19 2 67 7 105 11 39 3 79 8 90
10 11 3 56 9 101 14 44 5 105 15 135 20 29 6 70 13 89 16 19 2 60 9 90 15 30
6 62 13 70 14 8 2 15 4 15 5 0 1 9 3 20 5 34 6 61 13 111 30 27 9 54 18 59 20
36 11 57 19 106 44 30 14 53 30 51 35 -2 4 5 15 15 24 20 19 49 77 33 67 -5
-3 -10 1 -10 9 0 9 5 16 10 16 6 0 10 7 10 16 0 9 5 12 12 8 7 -4 8 -3 4 4 -4
6 0 25 9 43 9 17 14 33 11 37 -3 3 -1 11 5 18 6 8 9 20 6 27 -3 7 4 19 15 26
11 7 17 15 14 18 -3 3 1 12 9 20 8 7 19 32 25 54 6 22 20 55 31 72 10 18 19
42 19 55 0 12 4 22 9 22 5 0 9 15 9 32 3 119 2 150 -4 160 -4 6 -9 27 -11 47
-2 19 -12 54 -23 77 -10 24 -16 45 -12 48 3 3 0 6 -6 6 -6 0 -9 9 -7 20 2 11
0 20 -6 20 -5 0 -9 6 -9 13 0 8 -13 27 -30 43 -16 16 -30 34 -30 41 0 7 -6 16
-13 20 -7 4 -21 21 -31 37 -10 16 -30 41 -45 56 -42 43 -71 79 -71 91 0 5 -4
8 -9 5 -5 -3 -22 11 -37 32 -16 20 -41 48 -56 60 -16 13 -28 30 -28 38 0 8 -5
14 -10 14 -16 0 -77 65 -159 170 -24 30 -58 71 -76 91 -19 20 -32 39 -29 42 3
2 -7 8 -22 11 -14 4 -24 10 -20 13 3 3 -20 31 -52 62 -82 80 -98 107 -81 140
7 14 25 36 38 49 23 21 32 23 86 17 81 -9 91 -17 229 -166 47 -51 114 -103
181 -140 36 -20 173 -73 235 -90 25 -7 48 -17 51 -22 3 -5 10 -9 15 -9 10 0
50 -14 79 -28 25 -11 65 -23 85 -25 8 -1 44 -11 80 -23 36 -12 78 -27 94 -32
16 -5 33 -7 37 -4 5 3 9 1 9 -4 0 -5 32 -19 70 -32 39 -13 70 -28 70 -33 0 -5
7 -6 16 -3 9 3 25 0 36 -8 11 -8 26 -12 33 -10 6 3 17 -1 24 -9 6 -8 24 -13
41 -11 17 2 30 0 30 -5 0 -5 19 -11 43 -15 44 -7 54 -10 177 -50 41 -14 82
-26 90 -28 8 -2 18 -7 23 -13 4 -6 11 -4 17 5 6 10 10 11 10 3 0 -13 59 -49
73 -45 4 1 7 -3 7 -9 0 -6 7 -8 16 -5 9 4 13 2 8 -5 -4 -8 1 -9 15 -4 14 4 21
2 21 -6 0 -7 3 -10 6 -6 4 3 13 -1 21 -9 8 -8 19 -11 24 -8 6 3 13 -3 16 -15
6 -23 23 -29 23 -8 0 6 5 4 11 -5 5 -10 15 -18 20 -18 16 0 39 -27 31 -35 -4
-5 1 -5 11 -2 11 4 17 1 17 -7 0 -23 25 -37 39 -23 11 9 13 9 9 -2 -5 -16 33
-56 84 -91 20 -13 34 -28 32 -32 -3 -4 1 -8 9 -8 8 0 22 -9 31 -19 10 -11 40
-28 67 -37 27 -10 49 -22 49 -26 0 -4 3 -7 8 -6 4 0 16 -3 27 -7 82 -34 120
-45 132 -41 8 3 11 1 8 -4 -6 -9 13 -16 65 -23 14 -2 33 -7 43 -12 9 -4 26 -5
37 -2 11 3 18 1 15 -3 -6 -10 193 -5 203 4 3 3 12 0 20 -7 10 -8 13 -8 9 -1
-9 16 9 21 73 19 30 -2 60 2 67 7 6 5 14 5 17 0 3 -5 30 -8 61 -8 30 1 55 -1
55 -4 0 -5 45 -7 250 -12 100 -3 251 8 376 26 93 14 374 13 469 -2 28 -4 69
-5 92 -2 44 6 177 4 298 -4 72 -5 107 -13 185 -39 82 -28 114 -36 160 -42 25
-3 53 -8 63 -11 10 -3 44 -7 75 -9 32 -2 68 -7 82 -11 37 -10 350 -10 350 0 0
5 7 3 15 -4 12 -10 15 -10 15 0 0 9 14 11 52 8 29 -3 66 -1 83 4 16 4 53 10
80 13 28 2 79 8 115 14 36 6 82 11 103 11 21 0 36 4 33 8 -3 5 5 8 17 7 12 -1
37 2 55 6 17 4 32 3 32 -1 0 -5 12 -3 28 5 15 7 48 12 75 11 26 0 47 2 47 5 0
3 6 6 13 6 6 0 26 4 42 8 17 4 41 8 55 10 14 2 61 10 105 19 114 21 144 26
200 32 28 3 55 9 60 14 6 4 25 6 43 4 17 -2 32 0 32 4 0 4 17 8 37 9 21 1 39
7 41 13 2 5 7 8 12 5 5 -3 21 0 37 6 15 6 46 12 68 13 22 2 47 6 55 9 8 4 40
8 70 11 30 2 66 9 80 13 14 5 37 9 52 8 15 0 24 3 22 7 -4 7 64 13 90 9 4 -1
15 4 23 10 8 7 24 14 36 15 12 1 33 5 46 10 17 5 22 4 17 -4 -4 -7 2 -8 21 -3
16 4 33 6 40 4 6 -2 14 0 17 6 3 5 15 7 26 4 11 -3 20 -1 20 4 0 5 8 9 18 10
49 3 92 10 98 16 4 4 18 7 31 7 13 0 37 7 53 15 20 11 31 12 36 4 5 -8 9 -8
14 1 4 7 23 13 41 14 19 1 41 5 49 11 8 5 23 10 33 10 10 1 23 8 28 16 5 8 9
10 9 4 0 -5 11 -11 25 -11 14 -1 25 2 25 7 0 4 6 6 14 3 7 -3 29 1 47 9 19 8
44 12 57 11 12 -2 22 1 22 6 0 6 15 10 33 10 17 1 48 6 67 13 19 7 52 12 72
12 21 0 38 3 38 8 0 4 11 7 25 7 14 0 25 3 25 8 0 4 12 7 28 8 54 2 187 26
190 34 2 5 10 6 17 4 8 -3 20 -2 27 2 7 5 20 9 28 9 8 0 21 4 28 8 7 5 12 4
12 -3 0 -6 9 -4 23 5 13 8 26 12 30 9 3 -3 11 -2 18 2 21 13 59 14 59 1 0 -6
6 -2 14 9 8 10 17 16 21 12 4 -3 21 -1 38 6 18 7 39 12 47 11 8 -1 20 3 27 8
7 5 22 7 35 6 13 -2 28 -1 33 2 6 4 40 12 78 19 37 7 69 16 72 20 2 4 16 6 31
4 15 -1 37 1 50 6 14 6 26 5 29 0 9 -15 28 -12 22 3 -3 9 6 13 32 12 20 0 46
5 59 12 17 11 22 11 22 1 0 -10 3 -9 9 1 5 8 16 11 26 8 9 -4 14 -3 10 3 -4 6
9 10 30 10 21 0 34 4 30 10 -3 6 1 7 10 4 8 -4 22 -1 30 6 12 10 15 10 15 -1
0 -10 2 -11 8 -2 4 6 19 14 32 16 14 2 33 7 42 11 10 5 23 6 30 3 7 -2 21 0
31 5 10 5 40 12 65 14 26 3 49 9 50 14 2 6 8 10 13 10 6 0 8 -4 5 -8 -2 -4 4
-8 14 -8 10 0 16 4 14 8 -5 9 9 12 40 8 13 -1 16 2 10 12 -6 11 -5 11 8 0 11
-9 18 -10 23 -2 3 6 11 7 17 4 6 -4 13 -2 17 4 3 5 28 13 56 16 27 4 54 11 60
15 5 5 20 7 33 5 12 -2 22 -1 22 4 0 4 14 8 32 9 17 1 35 8 40 15 6 11 8 11 8
0 0 -9 5 -10 18 -3 9 5 37 12 62 15 25 3 61 11 80 17 25 9 35 9 38 0 2 -6 10
-11 18 -11 9 0 12 5 9 10 -6 9 8 14 29 11 4 -1 13 2 20 7 6 4 21 7 34 6 12 0
22 3 22 8 0 5 9 7 19 3 11 -3 22 -2 25 4 3 5 21 8 40 7 19 -1 32 3 28 8 -3 5
2 7 11 3 10 -3 17 -3 17 2 0 5 26 12 58 17 31 4 64 9 72 11 8 2 35 6 60 9 25
4 50 10 56 15 6 5 19 7 28 3 9 -3 16 -2 16 3 0 5 17 10 38 10 20 1 48 4 62 7
61 13 117 28 136 38 12 6 31 7 43 3 11 -3 21 -2 21 3 0 5 12 8 27 6 15 -1 33
2 40 8 9 7 17 7 29 -2 12 -11 15 -11 12 1 -2 9 4 13 16 11 10 -2 15 1 12 6 -3
6 2 9 11 7 10 -1 26 2 37 7 14 7 16 7 11 -2 -5 -9 -1 -8 16 1 13 7 32 14 42
15 9 1 18 2 20 4 6 5 47 11 89 13 35 1 48 6 48 17 0 13 1 13 10 0 5 -8 10 -10
10 -4 0 6 19 14 43 17 91 12 111 17 120 26 6 6 17 7 27 1 13 -7 22 -5 30 5 7
8 16 12 21 9 5 -3 24 -1 42 5 17 5 55 11 82 13 28 2 57 8 65 13 8 5 30 10 50
12 19 2 36 8 38 13 2 4 16 5 32 0 17 -5 30 -4 32 1 2 6 13 11 26 12 12 0 22 4
22 7 0 3 17 6 38 5 20 0 43 4 51 9 7 6 23 11 35 13 47 4 103 17 129 28 9 4 24
5 32 1 8 -3 15 -1 15 5 0 5 11 7 25 3 16 -4 39 2 67 16 25 13 44 18 46 11 2
-6 12 -7 27 -1 12 5 26 6 29 3 3 -3 12 -1 19 6 15 12 54 20 130 26 27 2 55 9
63 16 11 9 14 9 14 0 0 -8 6 -7 16 3 17 17 39 22 29 7 -3 -5 8 -3 25 6 17 8
40 13 51 10 10 -3 19 -2 19 2 0 4 12 7 28 6 15 0 38 5 52 12 14 6 43 13 65 14
22 2 45 6 50 10 6 3 30 9 55 12 59 8 72 11 88 21 8 5 39 9 69 11 30 1 58 6 62
11 3 5 20 10 36 11 34 2 67 8 143 28 28 7 61 11 72 8 11 -3 20 0 20 6 0 6 17
9 45 7 28 -2 49 2 56 10 6 7 17 10 25 7 8 -3 14 1 14 8 0 11 3 11 10 -1 7 -11
10 -11 10 -2 0 7 5 10 10 7 6 -4 17 -2 25 5 7 6 29 13 49 16 19 2 46 8 60 14
15 5 26 6 26 1 0 -5 14 -3 31 6 32 16 54 9 29 -8 -12 -8 -9 -9 10 -5 14 3 29
6 33 6 5 0 5 4 2 10 -3 5 12 12 35 16 22 4 42 10 45 14 2 4 25 5 50 3 29 -3
45 -1 45 6 0 9 5 9 21 0 17 -9 20 -8 14 2 -6 9 -3 11 8 6 10 -4 17 -1 17 6 0
7 8 3 17 -8 10 -13 14 -15 10 -4 -4 12 2 16 30 16 23 0 41 6 51 19 14 19 15
19 8 0 -4 -11 -2 -23 5 -27 17 -10 68 10 80 32 9 18 11 18 34 3 16 -10 34 -14
50 -10 14 4 25 2 25 -4 0 -5 4 -10 10 -10 5 0 9 3 9 8 -4 25 4 40 24 44 28 6
49 -1 41 -13 -8 -13 20 -11 33 2 13 13 83 18 83 7 0 -14 48 -8 63 7 10 10 27
13 49 10 28 -5 30 -4 11 4 -13 6 -23 16 -23 23 0 9 3 9 10 -2 5 -8 10 -11 10
-7 0 4 9 3 20 -3 16 -9 20 -8 21 7 0 10 3 13 5 6 5 -12 18 -9 74 14 23 9 70
12 70 5 0 -4 11 -7 25 -7 23 0 35 18 18 28 -5 2 -2 2 5 1 6 -2 12 0 12 4 0 13
59 5 77 -10 15 -11 16 -11 10 5 -6 17 10 22 57 17 10 -1 23 4 27 12 7 10 9 8
9 -7 0 -14 3 -16 8 -7 15 23 142 39 142 18 0 -6 5 -3 11 7 6 9 14 15 19 12 5
-3 11 -1 15 5 3 5 11 10 16 10 6 0 7 -4 4 -10 -3 -5 -1 -10 4 -10 6 0 11 5 11
10 0 6 12 10 28 10 15 0 38 7 51 17 23 15 25 15 39 -3 14 -18 14 -18 8 2 -4
14 -2 21 8 21 9 0 13 -3 11 -7 -2 -3 12 -6 30 -6 19 0 37 6 39 13 4 9 12 10
28 4 26 -10 42 2 45 34 2 14 -13 31 -48 55 -28 19 -56 40 -62 45 -39 34 -97
76 -97 70 0 -4 -6 -3 -12 3 -7 5 -27 12 -45 15 -46 7 -77 31 -60 45 20 17 64
33 147 53 41 10 109 27 150 39 124 35 183 51 228 60 24 5 47 12 51 14 4 3 23
8 42 11 208 35 347 121 478 296 78 104 128 208 217 454 82 228 159 433 274
735 9 25 56 151 105 280 78 209 125 332 225 590 16 41 49 129 74 195 25 66 64
167 86 225 57 146 82 212 119 310 17 47 36 94 41 105 5 11 24 61 43 110 96
247 160 413 172 440 15 35 79 201 130 335 20 52 40 104 45 115 4 11 22 56 40
100 17 44 35 89 40 100 5 11 25 65 45 120 20 55 42 114 50 130 7 17 18 46 25
65 7 19 16 44 21 55 19 46 68 171 220 565 89 228 171 442 184 475 13 33 61
157 106 275 45 118 136 355 201 525 65 171 151 393 189 495 39 102 92 241 119
310 26 69 87 229 135 355 47 127 90 239 95 250 5 11 25 65 45 120 20 55 43
114 50 130 23 54 73 179 89 225 19 56 84 226 166 435 95 243 108 315 67 375
-43 65 -74 75 -237 75 -148 0 -861 -13 -1050 -20 -58 -2 -301 -6 -540 -9 -239
-4 -529 -8 -645 -11 -350 -8 -636 -14 -935 -20 -157 -3 -370 -7 -475 -10 -988
-24 -1488 -32 -2555 -40 -651 -5 -1033 -9 -1915 -20 -445 -6 -618 -8 -1300
-20 -1155 -20 -2282 -34 -3080 -40 -479 -3 -566 -6 -640 -22 -16 -4 -33 -7
-37 -7 -3 -1 -10 -4 -14 -8 -4 -5 -16 -8 -26 -8 -29 0 -100 -58 -154 -127 -27
-35 -51 -69 -53 -76 -2 -6 -19 -43 -36 -82 -30 -66 -60 -147 -56 -153 0 -1 -6
-19 -14 -39 -8 -20 -13 -38 -11 -40 2 -3 -4 -35 -14 -71 -22 -82 -44 -184 -42
-194 1 -5 -2 -8 -6 -8 -4 0 -8 -8 -8 -17 -1 -19 -4 -37 -29 -148 -9 -38 -18
-88 -21 -110 -4 -22 -10 -44 -14 -50 -4 -5 -11 -28 -15 -50 -5 -22 -9 -42 -10
-45 0 -3 -4 -23 -9 -45 -4 -22 -20 -96 -36 -165 -45 -190 -50 -213 -55 -245
-13 -77 -36 -192 -45 -224 -5 -20 -10 -46 -10 -58 0 -38 -18 -73 -34 -67 -8 3
-30 25 -49 50 -30 39 -35 52 -40 124 -5 66 -13 93 -42 149 -20 38 -56 92 -81
121 -50 58 -74 100 -74 127 0 32 -50 126 -109 208 -32 44 -75 114 -94 155 -20
41 -58 104 -85 140 -45 60 -97 136 -191 280 -172 263 -520 643 -852 931 -35
31 -87 76 -114 100 -176 155 -368 292 -511 365 -97 49 -276 113 -364 129 -19
3 -75 15 -125 25 -49 10 -121 23 -160 29 -499 77 -819 151 -1075 249 -58 22
-161 58 -230 80 -225 73 -419 151 -570 228 -53 27 -133 65 -178 84 -89 38
-146 77 -124 87 7 3 21 13 30 23 21 22 58 34 66 21 13 -20 216 71 241 109 10
14 30 33 45 42 16 9 36 29 46 45 10 15 57 71 105 123 90 98 109 136 149 290 7
25 20 56 30 71 22 30 23 80 3 128 -13 30 -13 39 2 77 11 29 21 41 30 38 19 -8
29 50 21 118 -3 29 -11 115 -17 191 -9 128 -9 141 8 165 14 22 18 44 16 116
-2 85 -1 88 16 72 18 -16 20 -13 55 54 20 40 36 77 36 83 1 7 9 30 20 52 11
22 19 55 20 73 0 18 11 49 23 70 30 47 45 92 53 162 12 106 15 120 32 138 11
12 10 18 -4 33 -9 11 -13 19 -8 19 5 0 3 4 -5 9 -12 7 -12 13 -3 24 7 7 9 17
5 20 -3 4 0 14 8 23 16 19 21 92 8 116 -6 11 -6 18 -1 18 6 0 10 12 9 28 0 15
4 36 8 46 6 14 5 17 -4 11 -10 -6 -11 -2 -5 16 5 13 9 50 9 82 0 44 3 57 15
58 10 0 8 3 -5 9 -11 5 -15 9 -8 9 7 1 10 8 7 16 -4 8 -1 15 6 15 6 0 9 4 5 9
-3 5 -1 12 3 15 11 7 3 56 -9 56 -5 0 -9 7 -9 16 0 9 5 12 12 8 8 -5 9 -2 5
10 -4 10 -3 15 3 11 5 -3 38 1 72 9 35 8 90 20 123 26 168 31 287 92 386 196
108 115 180 268 269 579 59 206 60 208 110 255 37 34 38 38 45 124 9 105 6
110 -83 121 -31 4 -111 20 -177 35 -66 16 -194 43 -285 60 -233 44 -209 31
-242 130 -15 46 -25 92 -22 102 4 13 1 16 -9 12 -17 -6 -31 11 -33 41 -2 23
-13 110 -17 140 -4 25 -26 68 -41 78 -7 4 -8 10 -1 15 15 11 14 74 -1 90 -8 7
-14 28 -14 46 0 17 -5 37 -12 44 -9 9 -9 12 0 12 7 0 12 9 12 21 0 11 -4 18
-9 14 -6 -3 -5 10 0 31 7 25 7 39 -1 49 -8 10 -7 15 4 22 15 8 12 53 -3 53 -4
0 -7 10 -6 23 1 12 -5 28 -14 35 -9 8 -10 10 -3 7 9 -5 15 1 19 14 3 12 12 21
19 21 8 0 14 7 14 16 0 8 -4 13 -9 9 -16 -9 -29 27 -24 64 6 39 23 23 23 -21
0 -18 5 -28 14 -28 28 0 44 -30 55 -104 11 -76 28 -126 43 -126 9 0 11 14 9
95 -1 38 4 71 14 89 8 15 15 37 15 47 0 11 10 29 23 41 30 31 57 109 67 197
10 85 21 103 43 71 13 -18 19 -20 36 -11 12 7 21 17 21 24 0 7 8 24 17 37 58
81 77 252 49 415 -16 87 -20 180 -11 235 4 19 1 76 -5 125 -6 50 -12 104 -14
120 -10 83 -105 323 -155 394 -12 16 -28 45 -37 63 -51 110 -154 232 -252 300
-31 22 -42 35 -40 51 5 39 -148 169 -262 223 -52 25 -104 53 -115 64 -11 10
-53 34 -94 55 -40 20 -101 56 -134 81 -34 24 -68 44 -78 44 -9 0 -47 15 -85
34 -38 18 -85 36 -104 40 -55 10 -240 69 -240 77 0 6 47 -1 103 -16 15 -4 27
-5 27 -2 0 11 -130 87 -149 87 -11 0 -23 5 -26 10 -10 16 -102 60 -125 60 -12
0 -18 5 -15 10 4 6 -7 13 -25 16 -17 4 -33 10 -36 15 -2 5 -26 18 -51 29 -35
15 -58 19 -89 14 -32 -4 -42 -2 -47 9 -3 9 -25 25 -49 37 -24 11 -59 29 -78
40 -19 10 -44 19 -54 20 -11 0 -47 11 -80 24 -92 37 -116 41 -116 22 0 -21 -4
-20 -87 8 -114 39 -327 55 -390 29z m732 -282 c-3 -12 -10 -21 -15 -21 -5 0
-4 11 2 25 13 29 23 26 13 -4z m335 -5 c0 -9 -30 -14 -35 -6 -4 6 3 10 14 10
12 0 21 -2 21 -4z m-1060 -31 c0 -3 -12 -10 -26 -15 -14 -6 -22 -14 -19 -20 4
-6 -5 -10 -19 -10 -19 0 -26 5 -26 18 0 10 3 22 7 25 7 8 83 9 83 2z m713 -36
c7 0 1 -5 -12 -10 -31 -12 -49 10 -23 29 14 11 18 10 20 -2 2 -9 9 -16 15 -17z
m-828 11 c3 -5 -1 -10 -10 -10 -9 0 -13 5 -10 10 3 6 8 10 10 10 2 0 7 -4 10
-10z m1095 -14 c0 -11 -19 -15 -25 -6 -3 5 1 10 9 10 9 0 16 -2 16 -4z m74 -5
c11 -4 15 -10 10 -13 -5 -2 -20 1 -34 8 -26 14 -8 18 24 5z m146 -32 c0 -14
-46 -18 -82 -7 -63 19 -48 36 22 24 33 -5 60 -13 60 -17z m-540 -9 c-6 -11
-13 -20 -16 -20 -2 0 0 9 6 20 6 11 13 20 16 20 2 0 0 -9 -6 -20z m-722 -17
c2 -8 -6 -13 -22 -13 -26 0 -40 12 -29 24 11 11 46 2 51 -11z m-497 -43 c-25
-22 -41 -26 -41 -10 0 11 30 29 50 29 10 0 8 -6 -9 -19z m411 -5 c-6 -32 -3
-30 -123 -71 -128 -43 -168 -50 -194 -31 -18 14 -16 16 35 48 30 19 61 33 67
31 7 -2 23 2 34 9 12 6 50 13 85 14 35 2 71 8 81 14 10 6 19 11 19 11 1 0 -1
-11 -4 -25z m1218 6 c0 -4 -11 -6 -25 -3 -14 2 -25 6 -25 8 0 2 11 4 25 4 14
0 25 -4 25 -9z m-1915 -100 c8 -14 -13 -24 -33 -16 -14 5 -14 7 -2 15 19 12
27 12 35 1z m345 -16 c0 -16 -35 -21 -44 -6 -8 12 4 21 26 21 10 0 18 -7 18
-15z m-876 -20 c-6 -14 -34 -35 -48 -35 -3 0 -3 7 1 16 5 12 25 26 50 33 1 1
0 -6 -3 -14z m-204 -40 c-13 -14 -28 -25 -34 -25 -6 0 3 11 19 25 39 31 45 32
15 0z m380 21 c0 -2 -7 -7 -16 -10 -8 -3 -12 -2 -9 4 6 10 25 14 25 6z m-171
-35 c-10 -28 -51 -56 -63 -43 -7 6 53 70 66 71 4 1 2 -12 -3 -28z m33 -33 c-7
-7 -12 -8 -12 -2 0 14 12 26 19 19 2 -3 -1 -11 -7 -17z m113 2 c3 -5 -1 -10
-9 -10 -9 0 -16 5 -16 10 0 6 4 10 9 10 6 0 13 -4 16 -10z m55 -20 c0 -5 -4
-10 -10 -10 -5 0 -10 5 -10 10 0 6 5 10 10 10 6 0 10 -4 10 -10z m273 -17 c-7
-2 -19 -2 -25 0 -7 3 -2 5 12 5 14 0 19 -2 13 -5z m-133 -72 c0 -13 -34 -23
-54 -15 -9 3 -13 10 -10 15 7 12 64 12 64 0z m-319 -21 c5 0 9 -4 9 -10 0 -5
-6 -10 -14 -10 -8 0 -23 -11 -33 -24 -10 -13 -29 -27 -43 -30 l-25 -7 23 17
c23 17 31 50 10 39 -7 -4 -2 3 11 15 13 11 31 18 38 15 8 -3 19 -5 24 -5z
m2188 -20 c13 -7 10 -9 -11 -10 -16 0 -28 4 -28 10 0 5 -7 7 -15 4 -8 -4 -15
-1 -15 4 0 12 44 6 69 -8z m61 -20 c0 -5 -6 -10 -14 -10 -8 0 -18 5 -21 10 -3
6 3 10 14 10 12 0 21 -4 21 -10z m-2365 -10 c-3 -5 -11 -10 -16 -10 -6 0 -7 5
-4 10 3 6 11 10 16 10 6 0 7 -4 4 -10z m2325 -4 c0 -2 -7 -6 -15 -10 -8 -3
-15 -1 -15 4 0 6 7 10 15 10 8 0 15 -2 15 -4z m497 -47 c43 -22 92 -54 108
-71 l30 -31 -35 22 c-53 34 -79 45 -87 37 -4 -3 3 -13 15 -22 12 -8 22 -20 22
-25 0 -6 -24 9 -52 33 -79 65 -85 69 -125 84 l-38 13 42 1 c30 0 64 -11 120
-41z m-2627 -39 c0 -5 -4 -10 -10 -10 -5 0 -10 5 -10 10 0 6 5 10 10 10 6 0
10 -4 10 -10z m36 -27 c-10 -10 -19 5 -10 18 6 11 8 11 12 0 2 -7 1 -15 -2
-18z m414 13 c0 -9 -7 -12 -20 -9 -31 8 -34 23 -6 23 16 0 26 -6 26 -14z
m2113 -23 c34 -30 37 -35 16 -30 -13 4 -40 7 -60 7 -34 0 -36 2 -35 30 1 42
28 39 79 -7z m-2823 -9 c0 -9 -5 -14 -12 -12 -18 6 -21 28 -4 28 9 0 16 -7 16
-16z m2370 -104 c0 -13 -20 -13 -40 0 -12 8 -9 10 13 10 15 0 27 -4 27 -10z
m27 -42 c28 -11 28 -12 5 -16 -28 -4 -82 16 -82 30 0 11 32 5 77 -14z m262
-69 c13 -5 22 -11 20 -13 -9 -9 -78 -13 -73 -5 3 5 2 9 -3 9 -4 0 -16 12 -26
26 l-19 25 39 -16 c21 -9 49 -21 62 -26z m-3599 7 c0 -3 -4 -8 -10 -11 -5 -3
-10 -1 -10 4 0 6 5 11 10 11 6 0 10 -2 10 -4z m1405 -36 c3 -5 2 -10 -4 -10
-5 0 -13 5 -16 10 -3 6 -2 10 4 10 5 0 13 -4 16 -10z m2132 -15 c9 -25 -2 -27
-22 -5 -17 18 -17 20 -1 20 9 0 19 -7 23 -15z m168 -15 c3 -5 2 -10 -4 -10 -5
0 -13 5 -16 10 -3 6 -2 10 4 10 5 0 13 -4 16 -10z m814 -55 c51 -64 95 -148
88 -169 -2 -5 -17 19 -34 55 -17 35 -51 88 -77 117 -25 30 -46 56 -46 58 0 16
24 -5 69 -61z m-2249 45 c0 -13 -11 -13 -30 0 -12 8 -11 10 8 10 12 0 22 -4
22 -10z m1390 -10 c18 -12 2 -12 -25 0 -13 6 -15 9 -5 9 8 0 22 -4 30 -9z
m-2120 -20 c0 -5 -4 -10 -10 -10 -5 0 -10 5 -10 10 0 6 5 10 10 10 6 0 10 -4
10 -10z m3110 -25 c11 -13 10 -14 -4 -9 -9 3 -16 10 -16 15 0 13 6 11 20 -6z
m-2400 -25 c0 -5 -4 -10 -10 -10 -5 0 -10 5 -10 10 0 6 5 10 10 10 6 0 10 -4
10 -10z m1615 -48 c-6 -7 -35 18 -35 31 0 5 9 2 20 -8 11 -10 18 -20 15 -23z
m-2262 -19 c-7 -2 -19 -2 -25 0 -7 3 -2 5 12 5 14 0 19 -2 13 -5z m1725 -38
c-10 -11 -48 -14 -53 -4 -4 5 8 9 26 9 18 0 30 -2 27 -5z m915 -35 c-7 -28
-13 -25 -13 6 0 14 4 23 9 20 5 -3 7 -15 4 -26z m-2233 6 c-13 -16 -78 -41
-86 -33 -8 7 59 47 80 47 15 0 16 -3 6 -14z m1409 -75 c11 -6 26 -8 34 -5 17
6 29 -17 18 -34 -5 -9 -31 -1 -89 25 -45 21 -82 40 -82 44 0 8 91 -15 119 -30z
m105 10 c17 -11 33 -18 37 -15 12 7 55 -20 88 -58 18 -21 37 -36 43 -35 6 1
13 -4 15 -10 13 -35 -55 4 -75 42 -13 25 -44 41 -94 50 -23 3 -42 14 -48 25
-13 25 -3 25 34 1z m-3789 -31 c-22 -24 -47 -27 -38 -4 6 15 44 36 52 28 2 -2
-4 -13 -14 -24z m1403 -22 c-1 -7 4 -50 11 -96 10 -59 11 -86 3 -94 -14 -14
-27 51 -18 92 3 17 2 30 -3 30 -11 0 -21 49 -14 67 7 17 25 17 21 1z m479 -50
c-3 -7 -5 -2 -5 12 0 14 2 19 5 13 2 -7 2 -19 0 -25z m403 7 c0 -8 -2 -15 -4
-15 -2 0 -6 7 -10 15 -3 8 -1 15 4 15 6 0 10 -7 10 -15z m1896 -55 c15 -22 24
-43 21 -46 -10 -11 -27 7 -27 28 0 11 -8 22 -20 25 -11 3 -20 12 -20 19 0 26
19 14 46 -26z m-1916 20 c0 -5 -7 -10 -16 -10 -8 0 -12 5 -9 10 3 6 10 10 16
10 5 0 9 -4 9 -10z m1739 -220 c0 -10 -3 -8 -9 5 -12 27 -12 43 0 25 5 -8 9
-22 9 -30z m168 -12 c-3 -8 -6 -5 -6 6 -1 11 2 17 5 13 3 -3 4 -12 1 -19z
m396 -76 c10 -23 17 -55 16 -70 0 -18 -9 -1 -25 48 -13 41 -24 77 -24 80 0 13
19 -21 33 -58z m-693 7 c0 -11 -4 -17 -10 -14 -5 3 -10 13 -10 21 0 8 5 14 10
14 6 0 10 -9 10 -21z m180 -9 c0 -15 -5 -12 -26 11 -19 22 -19 22 4 10 12 -6
22 -16 22 -21z m-3004 -5 c6 -24 0 -44 -10 -34 -11 11 -17 59 -7 59 6 0 13
-11 17 -25z m4464 22 c0 -1 4 -18 10 -37 l9 -35 -19 24 c-21 25 -26 51 -10 51
6 0 10 -1 10 -3z m80 -33 c0 -8 -4 -12 -10 -9 -5 3 -10 13 -10 21 0 8 5 12 10
9 6 -3 10 -13 10 -21z m-1676 -59 c3 -8 1 -15 -4 -15 -6 0 -10 7 -10 15 0 8 2
15 4 15 2 0 6 -7 10 -15z m45 -30 c0 -5 -6 -1 -14 9 -8 10 -11 24 -8 29 6 10
21 -16 22 -38z m-319 31 c0 -2 -9 -6 -20 -9 -11 -3 -18 -1 -14 4 5 9 34 13 34
5z m-2633 -50 c-4 -9 -11 -16 -17 -16 -11 0 -14 33 -3 44 11 10 26 -11 20 -28z
m2928 5 c3 -11 12 -22 20 -25 8 -3 15 -13 15 -22 0 -12 -7 -9 -28 12 -26 28
-37 54 -21 54 4 0 10 -9 14 -19z m-380 -1 c-3 -5 -15 -10 -26 -10 -10 0 -19 5
-19 10 0 6 12 10 26 10 14 0 23 -4 19 -10z m-2528 -22 c-3 -8 -6 -5 -6 6 -1
11 2 17 5 13 3 -3 4 -12 1 -19z m3010 -10 c-3 -7 -5 -2 -5 12 0 14 2 19 5 13
2 -7 2 -19 0 -25z m-3124 -69 c-6 -63 -30 -79 -28 -20 0 33 22 88 30 79 2 -2
1 -29 -2 -59z m3124 19 c-3 -8 -6 -5 -6 6 -1 11 2 17 5 13 3 -3 4 -12 1 -19z
m-357 3 c0 -5 -7 -11 -15 -15 -15 -5 -20 5 -8 17 9 10 23 9 23 -2z m297 -13
c-3 -8 -6 -5 -6 6 -1 11 2 17 5 13 3 -3 4 -12 1 -19z m-3957 -43 c-12 -31 -3
-32 27 -3 28 26 39 19 22 -14 -7 -12 -12 -35 -11 -49 1 -16 -4 -29 -13 -33 -8
-3 -15 -1 -15 4 0 6 -7 10 -15 10 -8 0 -15 8 -16 18 0 9 -2 27 -5 40 -2 13 2
29 8 37 20 22 28 17 18 -10z m4017 3 c-3 -8 -6 -5 -6 6 -1 11 2 17 5 13 3 -3
4 -12 1 -19z m-347 -37 c0 -5 -7 -11 -15 -15 -15 -5 -20 5 -8 17 9 10 23 9 23
-2z m807 -83 c-2 -18 -4 -4 -4 32 0 36 2 50 4 33 2 -18 2 -48 0 -65z m-3797
72 c0 -5 -5 -10 -11 -10 -5 0 -7 5 -4 10 3 6 8 10 11 10 2 0 4 -4 4 -10z m167
-22 c-8 -24 -12 -28 -15 -15 -5 23 4 47 17 47 6 0 5 -13 -2 -32z m3170 -10
c-3 -7 -5 -2 -5 12 0 14 2 19 5 13 2 -7 2 -19 0 -25z m-60 -10 c-3 -8 -6 -5
-6 6 -1 11 2 17 5 13 3 -3 4 -12 1 -19z m17 -26 c3 -5 -1 -9 -9 -9 -8 0 -15 4
-15 9 0 4 4 8 9 8 6 0 12 -4 15 -8z m-3930 -17 c-4 -8 -8 -15 -10 -15 -2 0 -4
7 -4 15 0 8 4 15 10 15 5 0 7 -7 4 -15z m941 -47 c-7 -18 -17 -46 -21 -63 -3
-16 -9 -24 -11 -17 -8 22 18 112 33 112 12 0 11 -5 -1 -32z m-212 -53 c-3 -9
-8 -14 -10 -11 -3 3 -2 9 2 15 9 16 15 13 8 -4z m83 -12 c-2 -9 -8 -19 -15
-21 -10 -3 -10 0 -2 17 14 25 20 27 17 4z m3184 -28 c7 -9 8 -15 2 -15 -5 0
-12 7 -16 15 -3 8 -4 15 -2 15 2 0 9 -7 16 -15z m-3256 -30 c-4 -8 -10 -15
-15 -15 -4 0 -6 7 -3 15 4 8 10 15 15 15 4 0 6 -7 3 -15z m3474 -105 c0 -8 -6
-1 -13 15 -8 17 -14 39 -14 50 0 13 5 8 14 -15 7 -19 13 -42 13 -50z m-3494
31 c-4 -18 -16 -36 -28 -43 -17 -9 -19 -8 -8 3 6 7 12 22 12 34 0 19 19 49 27
41 2 -1 0 -17 -3 -35z m-704 -16 c-19 -36 -31 -31 -13 6 8 16 18 28 21 25 3
-3 -1 -17 -8 -31z m881 -38 c-17 -17 -24 0 -16 40 l8 38 9 -34 c6 -22 6 -37
-1 -44z m3203 10 l30 -42 -28 25 c-30 27 -52 60 -39 60 4 0 21 -19 37 -43z
m-3239 -95 c-10 -10 -16 -12 -13 -7 3 6 8 19 13 30 5 14 9 16 12 7 3 -8 -3
-21 -12 -30z m3346 -69 c-6 -15 -21 -39 -31 -53 -19 -24 -19 -23 1 23 21 49
19 81 -6 91 -8 3 -15 11 -15 18 0 7 14 -2 32 -19 28 -29 30 -34 19 -60z m1153
-1 c10 -22 16 -52 14 -68 l-3 -28 -16 24 c-18 29 -34 110 -21 110 5 0 17 -17
26 -38z m-4792 -24 c-7 -7 -12 -8 -12 -2 0 14 12 26 19 19 2 -3 -1 -11 -7 -17z
m38 13 c0 -6 -4 -13 -10 -16 -5 -3 -10 1 -10 9 0 9 5 16 10 16 6 0 10 -4 10
-9z m-189 -58 c-10 -17 -10 -16 -11 3 0 23 13 41 18 25 2 -6 -1 -18 -7 -28z
m-115 -18 c-4 -14 -11 -25 -16 -25 -13 0 -13 16 1 42 14 26 23 16 15 -17z
m200 7 c-18 -16 -18 -16 -6 6 6 13 14 21 18 18 3 -4 -2 -14 -12 -24z m3514 -2
c0 -5 -5 -10 -11 -10 -5 0 -7 5 -4 10 3 6 8 10 11 10 2 0 4 -4 4 -10z m-3644
-27 c-10 -10 -19 5 -10 18 6 11 8 11 12 0 2 -7 1 -15 -2 -18z m3375 -6 c-10
-9 -11 -8 -5 6 3 10 9 15 12 12 3 -3 0 -11 -7 -18z m222 -24 c-11 -32 -33 -59
-33 -42 0 14 27 59 35 59 3 0 2 -8 -2 -17z m614 -15 c-3 -7 -5 -2 -5 12 0 14
2 19 5 13 2 -7 2 -19 0 -25z m-21 -109 c-14 -33 -14 -33 -15 -7 -1 15 4 39 11
55 11 26 12 26 15 7 2 -12 -3 -37 -11 -55z m-329 -221 c-3 -8 -6 -5 -6 6 -1
11 2 17 5 13 3 -3 4 -12 1 -19z m983 -448 c0 -5 -2 -10 -4 -10 -3 0 -8 5 -11
10 -3 6 -1 10 4 10 6 0 11 -4 11 -10z m-1452 -127 c2 -12 12 -23 22 -25 15 -2
17 -7 10 -18 -6 -9 -13 -11 -17 -5 -5 6 -25 18 -46 28 -32 14 -36 19 -25 32
19 21 52 14 56 -12z m1653 -344 c22 -11 67 -45 100 -75 53 -48 63 -54 103 -54
54 0 207 -28 222 -41 48 -40 -4 -373 -90 -584 -100 -247 -215 -362 -425 -425
-59 -18 -87 -21 -142 -16 -78 7 -133 24 -109 35 9 3 16 22 18 46 2 22 7 44 12
50 4 5 7 31 6 57 0 25 2 44 7 41 4 -2 7 0 7 6 0 5 -5 13 -10 16 -8 5 -8 11 0
20 13 16 23 102 13 118 -4 6 -8 18 -9 27 -3 30 -26 105 -37 118 -5 7 -16 11
-23 8 -7 -3 -15 1 -17 8 -4 10 1 12 15 8 14 -3 19 -1 14 6 -4 7 -15 12 -24 13
-11 0 -12 2 -4 6 6 2 10 9 6 14 -3 5 1 9 8 9 9 0 9 3 -2 10 -11 8 -8 9 13 4
17 -4 27 -2 27 6 0 6 4 9 9 6 22 -14 31 29 36 165 4 134 -2 188 -19 160 -4 -6
-15 -11 -24 -11 -13 0 -14 2 -4 9 8 4 13 10 12 12 -2 4 9 75 16 100 3 9 25 38
49 64 25 26 45 50 45 55 0 33 141 40 201 9z m-3081 -32 c0 -7 -7 -22 -15 -33
-8 -12 -15 -50 -17 -90 -2 -42 -7 -67 -13 -64 -5 3 -9 12 -8 20 2 8 5 51 7 95
2 44 4 81 5 83 4 9 41 -1 41 -11z m570 -6 c-69 -23 -130 -52 -130 -63 0 -4 -9
-8 -20 -8 -11 0 -47 -11 -80 -24 -51 -21 -59 -22 -51 -8 15 29 44 50 105 77
73 32 117 43 181 43 l50 1 -55 -18z m1013 -107 c60 -55 72 -108 53 -240 -23
-161 -106 -375 -204 -522 -69 -106 -188 -208 -200 -173 -3 8 -9 8 -23 1 -10
-6 -19 -7 -19 -3 0 4 -6 1 -13 -8 -7 -9 -22 -19 -34 -23 -12 -4 -33 -20 -47
-37 -49 -58 -189 -93 -371 -93 -132 0 -197 12 -292 55 -135 60 -188 136 -224
319 -33 175 -21 570 19 555 7 -3 18 -5 23 -5 5 0 9 -7 9 -16 0 -13 3 -14 15
-4 11 10 18 9 30 -4 20 -19 20 -27 3 -37 -10 -6 -8 -12 8 -26 31 -28 57 -40
77 -37 12 2 17 -2 13 -11 -7 -20 12 -29 29 -15 12 10 15 9 15 -4 0 -12 10 -16
44 -16 39 0 45 -3 48 -22 3 -15 -5 -31 -22 -46 -14 -12 -20 -22 -15 -21 6 1
18 1 29 0 14 -1 16 -4 7 -14 -8 -11 -5 -17 15 -27 15 -9 28 -10 32 -5 13 18
31 15 43 -8 7 -12 16 -25 21 -28 6 -4 -4 -16 -21 -28 -20 -15 -31 -31 -31 -47
0 -24 -14 -32 -25 -14 -11 18 -27 11 -22 -10 3 -11 1 -18 -4 -14 -5 3 -9 3 -9
0 0 -2 -3 -12 -7 -22 -5 -14 -2 -16 14 -12 12 3 20 0 20 -7 0 -7 -9 -12 -19
-10 -19 4 -26 -11 -7 -17 6 -2 1 -15 -11 -31 -14 -17 -19 -34 -15 -45 6 -16 7
-16 16 1 6 9 14 15 20 12 5 -4 9 -1 9 4 0 6 10 11 23 10 12 0 16 -3 9 -6 -6
-2 -10 -9 -6 -14 3 -5 1 -9 -5 -9 -6 0 -8 -6 -5 -14 3 -8 12 -12 20 -9 8 3 14
-1 14 -10 0 -8 7 -18 16 -21 8 -3 13 -2 10 3 -3 5 1 11 9 15 8 3 15 0 16 -7 0
-9 2 -9 6 1 2 6 10 12 17 12 7 0 25 14 42 31 25 26 66 51 84 50 3 0 19 12 35
28 17 15 47 38 68 52 21 13 53 45 72 72 19 26 39 47 45 47 5 0 10 7 10 15 0 8
4 15 9 15 5 0 16 16 25 34 9 19 59 79 111 133 52 53 95 105 95 115 0 10 4 18
8 18 4 0 8 8 9 18 2 19 17 57 35 87 47 76 55 85 74 85 11 0 29 9 39 20 10 11
21 18 24 15 4 -2 13 0 20 5 19 11 61 -5 94 -36z m2106 37 c22 -14 3 -31 -34
-31 -19 0 -37 5 -41 11 -8 14 14 29 41 29 11 0 26 -4 34 -9z m-3500 -27 c29
-9 -3 -18 -65 -19 -38 0 -63 4 -61 10 7 20 75 25 126 9z m2521 -50 c0 -8 -4
-12 -10 -9 -5 3 -10 13 -10 21 0 8 5 12 10 9 6 -3 10 -13 10 -21z m-2215 -24
c4 -6 15 -8 26 -5 19 6 19 6 33 -65 2 -14 8 -35 11 -47 7 -20 4 -23 -22 -23
-17 0 -42 9 -56 20 -21 16 -25 27 -21 55 4 32 2 35 -21 33 -19 -2 -25 -8 -25
-25 0 -26 -15 -31 -24 -7 -10 27 -7 33 32 53 44 22 59 25 67 11z m2065 -38 c0
-5 -11 -19 -25 -32 -26 -24 -33 -14 -15 21 11 19 40 27 40 11z m-883 -159 c-8
-72 -56 -227 -109 -353 -46 -108 -103 -192 -179 -265 l-52 -50 40 55 c115 157
211 358 264 554 18 64 34 116 37 116 3 0 2 -26 -1 -57z m1017 -75 c-9 -14 -23
2 -17 18 4 12 8 13 14 3 4 -7 5 -17 3 -21z m-647 -70 c-3 -8 -6 -5 -6 6 -1 11
2 17 5 13 3 -3 4 -12 1 -19z m158 -518 c3 -5 1 -10 -4 -10 -6 0 -11 5 -11 10
0 6 2 10 4 10 3 0 8 -4 11 -10z m25 -40 c0 -5 -4 -10 -10 -10 -5 0 -10 5 -10
10 0 6 5 10 10 10 6 0 10 -4 10 -10z m24 -111 c10 -47 10 -68 2 -78 -8 -11 -8
-13 0 -8 14 8 25 -26 14 -43 -5 -8 -9 -4 -13 10 -5 19 -10 21 -37 15 -28 -6
-31 -5 -26 11 5 20 17 94 21 134 3 42 4 45 15 34 6 -6 17 -39 24 -75z m-1494
-520 c0 -5 -5 -9 -11 -9 -5 0 -7 5 -4 10 3 6 1 10 -4 10 -6 0 -11 5 -11 11 0
8 5 8 15 -1 8 -7 15 -16 15 -21z m1309 -53 c8 -13 12 -29 9 -36 -2 -6 -11 5
-19 24 -18 40 -10 49 10 12z m41 -79 c0 -20 -1 -20 -16 -5 -9 9 -13 21 -9 27
10 16 25 3 25 -22z m-684 -48 c7 -8 8 -22 4 -34 -7 -17 -9 -16 -15 13 -4 17
-11 32 -16 32 -5 0 -9 12 -8 28 l1 27 11 -26 c7 -14 17 -32 23 -40z m534 -79
c0 -5 -2 -10 -4 -10 -3 0 -8 5 -11 10 -3 6 -1 10 4 10 6 0 11 -4 11 -10z
m-400 -481 c0 -31 -24 -99 -36 -99 -3 0 -4 9 -1 20 3 11 1 36 -3 57 -6 23 -5
42 1 50 17 19 39 3 39 -28z m220 11 c0 -5 -5 -10 -11 -10 -5 0 -7 5 -4 10 3 6
8 10 11 10 2 0 4 -4 4 -10z m-135 -57 l-16 -28 7 35 c8 44 17 60 22 38 2 -9
-4 -29 -13 -45z m700 -563 c3 -5 2 -10 -4 -10 -5 0 -13 5 -16 10 -3 6 -2 10 4
10 5 0 13 -4 16 -10z m25 -46 c0 -8 -4 -12 -10 -9 -5 3 -10 10 -10 16 0 5 5 9
10 9 6 0 10 -7 10 -16z m24 -79 c-4 -8 -10 -12 -15 -9 -11 6 -2 24 11 24 5 0
7 -7 4 -15z m-847 -107 c-3 -8 -6 -5 -6 6 -1 11 2 17 5 13 3 -3 4 -12 1 -19z
m34 -75 c-10 -17 -10 -16 -11 3 0 23 13 41 18 25 2 -6 -1 -18 -7 -28z m449
-158 c0 -5 -5 -3 -10 5 -5 8 -10 20 -10 25 0 6 5 3 10 -5 5 -8 10 -19 10 -25z
m-1073 -37 c-3 -8 -6 -5 -6 6 -1 11 2 17 5 13 3 -3 4 -12 1 -19z m488 -98
c-15 -46 -35 -75 -35 -51 0 5 4 13 10 16 5 3 9 16 8 29 -1 12 4 38 12 57 22
51 25 10 5 -51z m-1205 42 c0 -15 -28 -47 -35 -40 -8 8 13 48 25 48 6 0 10 -4
10 -8z m526 -49 c-11 -11 -19 6 -11 24 8 17 8 17 12 0 3 -10 2 -21 -1 -24z
m464 7 c0 -5 -5 -10 -11 -10 -5 0 -7 5 -4 10 3 6 8 10 11 10 2 0 4 -4 4 -10z
m357 -32 c-3 -8 -6 -5 -6 6 -1 11 2 17 5 13 3 -3 4 -12 1 -19z m-357 -45 c0
-19 -3 -24 -10 -17 -6 6 -8 18 -4 27 9 24 14 21 14 -10z m345 -10 c-3 -16 -11
-32 -16 -38 -10 -9 -3 38 8 58 10 17 15 5 8 -20z m-555 -97 c0 -3 -4 -8 -10
-11 -5 -3 -10 -1 -10 4 0 6 5 11 10 11 6 0 10 -2 10 -4z m160 -46 c0 -5 -5
-10 -11 -10 -5 0 -7 5 -4 10 3 6 8 10 11 10 2 0 4 -4 4 -10z m-8020 -2705 c0
-8 -4 -15 -10 -15 -5 0 -7 7 -4 15 4 8 8 15 10 15 2 0 4 -7 4 -15z m9716
-7657 c7 -8 -57 -27 -68 -21 -15 8 -7 22 15 25 28 5 45 4 53 -4z m2023 -252
c15 -18 4 -66 -15 -66 -8 0 -14 9 -14 19 0 11 -4 23 -10 26 -5 3 -10 13 -10
21 0 18 34 18 49 0z m-4139 -512 c0 -8 -4 -12 -10 -9 -5 3 -10 10 -10 16 0 5
5 9 10 9 6 0 10 -7 10 -16z m3825 -104 c-3 -5 -12 -7 -20 -3 -21 7 -19 13 6
13 11 0 18 -4 14 -10z m-1832 -40 c3 -11 1 -18 -4 -14 -5 3 -9 12 -9 20 0 20
7 17 13 -6z m1607 -240 c13 -8 13 -11 -2 -26 -9 -9 -21 -13 -27 -10 -19 12
-12 24 12 19 21 -4 22 -4 3 11 -21 17 -11 22 14 6z m11570 -134 c0 -11 -19
-15 -25 -6 -3 5 1 10 9 10 9 0 16 -2 16 -4z m-240 -30 c0 -3 -4 -8 -10 -11 -5
-3 -10 -1 -10 4 0 6 5 11 10 11 6 0 10 -2 10 -4z m-56 -48 c-3 -4 -9 -8 -15
-8 -5 0 -9 4 -9 8 0 5 7 9 15 9 8 0 12 -4 9 -9z m-257 -14 c-3 -3 -12 -4 -19
-1 -8 3 -5 6 6 6 11 1 17 -2 13 -5z m-127 -28 c0 -2 -7 -9 -15 -16 -12 -10
-15 -10 -15 4 0 9 7 16 15 16 8 0 15 -2 15 -4z m-14370 -357 c0 -5 -4 -9 -8
-9 -5 0 -9 7 -9 15 0 8 4 12 9 9 4 -3 8 -9 8 -15z m3204 -534 c10 -2 20 -6 21
-7 1 -2 14 -20 30 -41 50 -68 31 -191 -37 -241 -41 -30 -94 -11 -130 47 -39
62 -46 122 -19 174 25 50 69 85 96 78 11 -3 28 -8 39 -10z m-1964 -230 c0 -8
-2 -15 -4 -15 -2 0 -6 7 -10 15 -3 8 -1 15 4 15 6 0 10 -7 10 -15z"/>
<path d="M19760 18840 c-9 -6 -10 -10 -3 -10 6 0 15 5 18 10 8 12 4 12 -15 0z"/>
<path d="M18720 23555 c0 -17 -19 -24 -60 -19 -43 5 -70 -3 -70 -21 0 -8 -8
-14 -17 -14 -129 2 -205 -21 -217 -63 -5 -22 -8 -22 49 3 25 11 49 18 52 16 3
-3 20 3 39 13 l34 20 6 -26 c5 -19 9 -22 20 -13 8 6 14 9 14 6 0 -3 23 1 51 9
28 9 57 13 65 10 8 -3 45 1 82 10 74 17 70 17 160 8 54 -5 61 -4 56 10 -4 12
-20 16 -54 16 -30 0 -52 6 -60 15 -6 8 -27 14 -44 13 -18 -1 -39 3 -46 7 -23
14 -60 14 -60 0z"/>
<path d="M19020 23549 c0 -5 5 -7 10 -4 6 3 10 8 10 11 0 2 -4 4 -10 4 -5 0
-10 -5 -10 -11z"/>
<path d="M18863 23419 c-18 -5 -33 -12 -33 -14 0 -11 37 -4 56 10 22 16 21 17
-23 4z"/>
<path d="M18725 23403 c-60 -13 -87 -26 -74 -34 14 -8 26 -7 102 12 59 15 33
36 -28 22z"/>
<path d="M18306 23391 c-4 -6 -26 -16 -49 -23 -23 -7 -73 -32 -112 -57 -57
-37 -66 -46 -48 -49 13 -2 31 6 43 18 26 26 100 61 113 53 11 -6 61 6 54 14
-4 3 -2 14 4 25 11 20 6 37 -5 19z"/>
<path d="M18563 23353 c-26 -5 -31 -28 -8 -37 8 -3 31 2 51 10 29 12 34 18 23
25 -14 9 -28 9 -66 2z"/>
<path d="M18435 23319 c-4 -6 -5 -13 -2 -16 8 -7 47 7 47 18 0 13 -37 11 -45
-2z"/>
<path d="M18703 23300 c-13 -5 -23 -12 -23 -16 0 -9 73 6 85 17 12 12 -32 11
-62 -1z"/>
<path d="M21010 23260 c0 -5 5 -10 11 -10 5 0 7 5 4 10 -3 6 -8 10 -11 10 -2
0 -4 -4 -4 -10z"/>
<path d="M20505 23140 c-3 -5 1 -10 10 -10 9 0 13 5 10 10 -3 6 -8 10 -10 10
-2 0 -7 -4 -10 -10z"/>
<path d="M20180 23131 c0 -9 60 -21 117 -23 22 -1 33 -7 36 -20 4 -15 14 -18
44 -16 21 1 65 -5 98 -14 33 -9 96 -24 140 -33 116 -25 197 -55 222 -81 14
-14 30 -20 42 -17 19 5 19 7 4 29 -8 13 -20 24 -27 24 -6 0 -47 16 -91 36 -44
20 -93 40 -110 44 -119 34 -209 52 -321 65 -151 18 -154 18 -154 6z"/>
<path d="M20560 23130 c19 -13 30 -13 30 0 0 6 -10 10 -22 10 -19 0 -20 -2 -8
-10z"/>
<path d="M19549 23119 c-8 -5 -29 -6 -48 -2 -26 4 -33 3 -29 -8 3 -10 24 -15
69 -16 35 -1 80 -4 99 -6 51 -7 126 6 122 22 -1 7 2 10 7 7 5 -4 12 -3 14 1 7
11 -218 13 -234 2z"/>
<path d="M20138 23123 c7 -3 16 -2 19 1 4 3 -2 6 -13 5 -11 0 -14 -3 -6 -6z"/>
<path d="M17735 23100 c3 -5 15 -15 26 -21 19 -10 20 -9 9 10 -6 12 -18 21
-26 21 -8 0 -12 -4 -9 -10z"/>
<path d="M19368 23053 c7 -3 16 -2 19 1 4 3 -2 6 -13 5 -11 0 -14 -3 -6 -6z"/>
<path d="M20305 23030 c14 -16 20 -17 27 -8 5 9 8 7 8 -7 0 -12 5 -26 12 -33
14 -14 6 -15 -50 -12 -45 2 -93 -10 -86 -21 3 -6 16 -9 27 -8 12 2 37 -1 55
-5 33 -8 119 2 95 11 -7 3 -13 11 -13 18 0 10 11 9 50 -5 28 -10 52 -18 53
-18 1 1 18 -4 37 -9 19 -6 51 -14 70 -16 l35 -6 -40 19 c-22 11 -48 20 -59 20
-15 0 -16 3 -7 14 8 9 8 16 2 20 -20 13 -107 36 -134 36 -15 0 -30 6 -33 13
-2 7 -19 14 -36 15 -31 3 -31 2 -13 -18z"/>
<path d="M19280 23030 c-24 -15 -7 -19 20 -5 15 8 19 14 10 14 -8 1 -22 -3
-30 -9z"/>
<path d="M19795 23000 c-14 -6 -2 -9 42 -9 34 -1 65 4 68 9 8 12 -81 12 -110
0z"/>
<path d="M19945 23000 c3 -5 -1 -10 -9 -10 -9 0 -16 -7 -16 -16 0 -12 9 -14
44 -11 49 5 66 13 66 29 0 6 -14 8 -34 6 -19 -2 -32 0 -30 4 3 4 -2 8 -11 8
-9 0 -13 -4 -10 -10z"/>
<path d="M19452 22986 c-27 -13 -23 -30 9 -34 34 -4 109 -33 109 -42 0 -4 -35
-5 -77 -3 -162 9 -283 1 -283 -18 0 -5 12 -9 28 -10 15 0 36 -4 47 -8 19 -8
19 -8 -2 -21 -11 -8 -19 -19 -16 -26 6 -16 -39 -47 -47 -33 -8 12 -55 2 -70
-16 -8 -10 5 -14 67 -17 90 -5 109 -2 118 19 8 21 -4 31 -15 13 -8 -13 -10
-13 -10 1 0 18 35 39 65 39 11 0 36 3 56 6 23 4 73 -2 133 -16 117 -27 177
-22 194 15 8 17 20 25 36 25 14 0 28 5 31 10 3 6 -3 10 -15 10 -14 0 -20 5
-18 17 2 13 -7 17 -46 20 -53 4 -77 13 -33 13 14 0 28 4 31 9 8 13 -18 21 -34
11 -8 -5 -25 -3 -43 6 -22 12 -32 13 -43 3 -11 -9 -14 -9 -14 1 0 7 -6 10 -13
7 -7 -3 -19 4 -25 14 -14 22 -81 25 -120 5z m-69 -118 c-20 -19 -25 -20 -50
-9 -26 13 -27 14 -8 22 11 4 33 8 50 8 l29 1 -21 -22z m342 -28 c3 -5 1 -10
-4 -10 -6 0 -11 5 -11 10 0 6 2 10 4 10 3 0 8 -4 11 -10z"/>
<path d="M19338 22985 c-3 -3 -26 -7 -52 -9 -26 -2 -53 -9 -59 -16 -9 -9 3
-10 58 -5 83 8 105 13 105 26 0 9 -43 13 -52 4z"/>
<path d="M19035 22869 c-10 -15 -4 -18 28 -12 21 4 25 8 15 14 -18 12 -36 11
-43 -2z"/>
<path d="M20148 22853 c7 -3 16 -2 19 1 4 3 -2 6 -13 5 -11 0 -14 -3 -6 -6z"/>
<path d="M19390 22771 c0 -6 5 -13 10 -16 18 -11 1 -23 -53 -39 -28 -9 -61
-23 -72 -32 -20 -15 -20 -15 -1 -30 14 -10 16 -14 5 -14 -8 0 -24 -8 -37 -18
-21 -17 -20 -17 58 -14 54 3 80 1 80 -7 0 -6 -17 -11 -39 -11 -22 0 -43 -5
-47 -11 -3 -6 -14 -9 -24 -6 -9 2 -28 -4 -41 -15 l-24 -20 25 7 c51 15 126 17
178 5 29 -6 51 -15 47 -18 -4 -4 -75 -13 -158 -20 -84 -7 -163 -14 -177 -15
-28 -3 -95 -36 -87 -43 3 -3 21 2 41 10 32 13 36 13 36 0 0 -10 6 -13 18 -10
35 10 178 49 200 53 15 4 22 1 22 -11 0 -11 9 -15 33 -14 18 1 42 -4 54 -10
13 -7 24 -8 27 -3 4 5 0 12 -6 14 -7 3 -3 6 8 6 12 1 33 -8 47 -19 14 -11 30
-20 36 -20 7 0 34 -12 62 -26 28 -14 57 -23 65 -20 7 3 16 1 19 -4 4 -6 -6
-10 -21 -10 -25 0 -26 -1 -11 -23 14 -21 13 -25 -1 -35 -15 -11 -14 -12 5 -7
12 3 24 1 28 -4 7 -13 54 -33 125 -54 58 -18 98 -22 165 -18 l40 2 -30 14 -30
13 37 1 c20 1 39 5 42 10 7 11 -58 20 -76 11 -7 -4 -24 -4 -38 0 -25 8 -25 8
7 15 57 13 57 30 0 33 -33 2 -54 8 -63 20 -18 25 1 33 64 25 35 -4 52 -2 52 5
0 15 57 5 89 -15 30 -19 124 -27 119 -10 -3 7 -25 19 -51 27 -52 17 -61 30
-19 30 39 0 198 -36 266 -60 32 -12 60 -19 62 -17 7 7 -82 66 -127 83 -24 10
-53 23 -64 31 -11 7 -34 13 -52 13 -18 0 -33 4 -33 9 0 16 -63 38 -125 45 -76
8 -218 38 -225 47 -3 3 -24 10 -47 14 -41 6 -93 43 -93 65 0 6 10 15 23 20
l22 9 -23 0 c-19 1 -22 5 -17 22 6 19 4 21 -19 15 -20 -5 -26 -3 -26 10 0 14
-11 16 -90 12 -49 -2 -90 -1 -90 4 0 4 6 9 13 9 16 2 -42 16 -70 18 -13 0 -23
-3 -23 -8z m504 -277 c28 -11 18 -27 -11 -19 -37 9 -53 25 -26 25 12 0 28 -3
37 -6z m266 -6 c0 -4 -6 -8 -12 -9 -7 0 -24 -2 -38 -5 -43 -7 -53 -7 -124 -6
-44 1 -66 6 -60 11 15 16 234 24 234 9z m-337 -168 c-13 -15 -21 -16 -44 -8
-46 16 -42 24 10 25 46 1 48 0 34 -17z m77 -4 c0 -11 -19 -15 -25 -6 -3 5 1
10 9 10 9 0 16 -2 16 -4z"/>
<path d="M18960 22703 c-28 -5 -50 -21 -50 -34 0 -17 36 -9 70 16 33 24 30 27
-20 18z"/>
<path d="M19763 22623 c9 -2 25 -2 35 0 9 3 1 5 -18 5 -19 0 -27 -2 -17 -5z"/>
<path d="M19163 22588 c-13 -6 -23 -15 -23 -20 0 -15 27 -8 45 12 20 22 12 25
-22 8z"/>
<path d="M19948 22593 c7 -3 16 -2 19 1 4 3 -2 6 -13 5 -11 0 -14 -3 -6 -6z"/>
<path d="M20000 22590 c0 -5 12 -10 28 -10 21 0 24 2 12 10 -20 13 -40 13 -40
0z"/>
<path d="M20205 22550 c11 -5 34 -8 50 -8 29 0 29 0 5 8 -14 4 -36 8 -50 8
-23 1 -23 0 -5 -8z"/>
<path d="M20325 22504 c16 -9 46 -21 65 -25 l35 -8 -24 20 c-13 10 -31 19 -40
19 -9 0 -27 3 -41 6 -23 5 -22 4 5 -12z"/>
<path d="M20480 22460 c0 -5 6 -10 13 -10 6 0 23 -3 37 -6 17 -5 22 -3 15 3
-15 15 -65 25 -65 13z"/>
<path d="M20010 22380 c0 -5 12 -10 28 -9 24 0 25 1 7 9 -27 12 -35 12 -35 0z"/>
<path d="M18903 22370 c-13 -5 -23 -12 -23 -15 0 -9 16 -5 36 10 22 16 19 18
-13 5z"/>
<path d="M20500 22333 c0 -10 181 -105 188 -99 2 3 -6 10 -20 15 -13 5 -30 16
-38 26 -14 17 -102 65 -120 65 -5 0 -10 -3 -10 -7z"/>
<path d="M20238 22323 c6 -2 18 -2 25 0 6 3 1 5 -13 5 -14 0 -19 -2 -12 -5z"/>
<path d="M20376 22302 c-3 -6 -1 -14 5 -17 15 -10 25 3 12 16 -7 7 -13 7 -17
1z"/>
<path d="M19150 22275 c-14 -8 -20 -14 -14 -15 5 0 19 7 30 15 24 18 16 19
-16 0z"/>
<path d="M20474 22248 c13 -21 34 -22 59 -4 16 13 14 14 -26 17 -40 4 -43 2
-33 -13z"/>
<path d="M20795 22220 c3 -5 8 -10 11 -10 2 0 4 5 4 10 0 6 -5 10 -11 10 -5 0
-7 -4 -4 -10z"/>
<path d="M19826 22212 c8 -8 40 -18 112 -37 12 -4 22 -3 22 2 0 4 -26 16 -58
26 -61 19 -92 22 -76 9z"/>
<path d="M19975 22210 c-3 -5 -1 -10 4 -10 6 0 11 5 11 10 0 6 -2 10 -4 10 -3
0 -8 -4 -11 -10z"/>
<path d="M20008 22203 c7 -3 16 -2 19 1 4 3 -2 6 -13 5 -11 0 -14 -3 -6 -6z"/>
<path d="M19775 22181 c-3 -5 -1 -12 5 -16 5 -3 10 1 10 9 0 18 -6 21 -15 7z"/>
<path d="M19553 22043 c9 -2 23 -2 30 0 6 3 -1 5 -18 5 -16 0 -22 -2 -12 -5z"/>
<path d="M19625 22040 c3 -5 10 -10 16 -10 5 0 9 5 9 10 0 6 -7 10 -16 10 -8
0 -12 -4 -9 -10z"/>
<path d="M20147 22023 c-3 -5 13 -9 34 -10 21 0 39 3 39 8 0 11 -67 12 -73 2z"/>
<path d="M20530 22022 c0 -11 41 -34 48 -27 4 4 -2 13 -12 21 -22 15 -36 18
-36 6z"/>
<path d="M20240 21990 c0 -5 12 -10 28 -9 24 0 25 1 7 9 -27 12 -35 12 -35 0z"/>
<path d="M19310 21980 c0 -5 7 -10 15 -10 8 0 15 5 15 10 0 6 -7 10 -15 10 -8
0 -15 -4 -15 -10z"/>
<path d="M19880 21980 c0 -5 5 -10 10 -10 6 0 10 5 10 10 0 6 -4 10 -10 10 -5
0 -10 -4 -10 -10z"/>
<path d="M18975 21961 c-3 -5 -1 -12 5 -16 5 -3 10 1 10 9 0 18 -6 21 -15 7z"/>
<path d="M19266 21962 c-13 -13 -4 -21 28 -28 54 -10 63 0 18 18 -22 9 -43 13
-46 10z"/>
<path d="M19400 21931 c0 -11 39 -26 47 -17 8 8 3 12 -24 20 -13 4 -23 3 -23
-3z"/>
<path d="M18448 21913 c-7 -25 6 -53 14 -31 3 7 2 22 -2 32 -6 19 -7 19 -12
-1z"/>
<path d="M19470 21920 c0 -5 4 -10 9 -10 6 0 13 5 16 10 3 6 -1 10 -9 10 -9 0
-16 -4 -16 -10z"/>
<path d="M19246 21898 c-21 -29 -3 -51 19 -22 16 22 19 44 6 44 -6 0 -17 -10
-25 -22z"/>
<path d="M19139 21893 c-6 -33 -4 -122 2 -111 13 25 22 118 10 118 -6 0 -12
-3 -12 -7z"/>
<path d="M20165 21880 c3 -5 15 -10 26 -10 11 0 17 5 14 10 -3 6 -15 10 -26
10 -11 0 -17 -4 -14 -10z"/>
<path d="M19320 21876 c0 -2 7 -6 15 -10 8 -3 15 -1 15 4 0 6 -7 10 -15 10 -8
0 -15 -2 -15 -4z"/>
<path d="M20440 21840 c-12 -7 -12 -12 -2 -22 14 -14 42 -2 50 20 4 14 -27 16
-48 2z"/>
<path d="M19710 21828 c-30 -6 -64 -17 -75 -25 -18 -13 -14 -14 45 -8 36 4 69
11 75 16 12 12 45 12 45 0 0 -5 -12 -11 -27 -13 -27 -3 -46 -28 -21 -28 8 0
33 -9 56 -20 53 -26 66 -25 25 1 -56 36 -41 51 24 24 44 -19 44 -19 36 2 -5
13 -2 15 18 9 55 -16 92 -19 85 -8 -4 7 -15 12 -25 12 -10 0 -29 8 -42 18 -13
11 -31 19 -39 20 -8 0 -40 3 -70 6 -30 3 -80 0 -110 -6z"/>
<path d="M20058 21833 c-25 -6 -10 -33 18 -33 14 0 35 -6 47 -14 31 -19 77
-29 77 -16 0 6 -11 16 -25 22 -14 6 -25 17 -25 25 0 7 -8 13 -17 13 -10 0 -27
2 -38 4 -11 2 -28 2 -37 -1z"/>
<path d="M20275 21820 c12 -13 31 -20 54 -20 51 0 68 14 36 28 -33 15 -65 15
-65 0 0 -9 -3 -9 -12 0 -20 20 -32 13 -13 -8z"/>
<path d="M20180 21820 c20 -13 60 -13 60 0 0 6 -17 10 -37 10 -28 0 -34 -3
-23 -10z"/>
<path d="M20560 21798 c-29 -31 -20 -43 32 -42 42 0 44 -1 40 -25 l-4 -26 27
29 c22 22 25 30 14 37 -8 5 -19 9 -25 9 -6 0 -19 9 -29 20 -23 25 -29 25 -55
-2z"/>
<path d="M18622 21790 c0 -14 2 -19 5 -12 2 6 2 18 0 25 -3 6 -5 1 -5 -13z"/>
<path d="M19157 21796 c-4 -10 -5 -21 -2 -24 9 -9 17 6 13 25 -3 17 -4 17 -11
-1z"/>
<path d="M20397 21803 c-12 -11 -8 -23 8 -23 8 0 15 7 15 15 0 16 -12 20 -23
8z"/>
<path d="M19563 21783 c9 -2 23 -2 30 0 6 3 -1 5 -18 5 -16 0 -22 -2 -12 -5z"/>
<path d="M20220 21775 c0 -10 10 -14 35 -13 28 1 33 4 24 15 -16 18 -59 17
-59 -2z"/>
<path d="M19695 21761 c-8 -13 34 -41 52 -34 12 5 11 9 -3 24 -18 21 -39 25
-49 10z"/>
<path d="M18323 21731 c5 -25 48 -81 62 -81 3 0 5 16 5 35 0 24 -5 35 -15 35
-8 0 -19 9 -25 20 -16 31 -33 25 -27 -9z"/>
<path d="M18622 21730 c0 -14 2 -19 5 -12 2 6 2 18 0 25 -3 6 -5 1 -5 -13z"/>
<path d="M19644 21734 c3 -8 6 -18 6 -20 0 -3 5 -2 10 1 15 9 12 22 -6 29 -12
5 -15 2 -10 -10z"/>
<path d="M19510 21730 c0 -12 8 -12 35 0 18 8 17 9 -7 9 -16 1 -28 -3 -28 -9z"/>
<path d="M20082 21728 c5 -15 28 -23 28 -10 0 5 -7 13 -16 16 -10 4 -14 1 -12
-6z"/>
<path d="M20596 21719 c-19 -19 -19 -19 2 -19 15 0 22 6 22 20 0 24 0 24 -24
-1z"/>
<path d="M19675 21700 c-8 -13 -9 -12 28 -28 18 -8 27 -8 27 -1 0 6 14 1 31
-11 34 -25 45 -23 25 5 -8 11 -29 20 -51 21 -21 2 -42 9 -45 15 -6 8 -9 8 -15
-1z"/>
<path d="M18311 21658 c0 -13 4 -32 9 -43 7 -16 9 -13 9 17 1 20 -3 40 -9 43
-6 3 -10 -4 -9 -17z"/>
<path d="M20575 21669 c-4 -6 -5 -12 -2 -15 2 -3 7 2 10 11 7 17 1 20 -8 4z"/>
<path d="M20540 21660 c0 -5 5 -10 10 -10 6 0 10 5 10 10 0 6 -4 10 -10 10 -5
0 -10 -4 -10 -10z"/>
<path d="M19888 21638 c12 -12 24 -19 28 -15 10 10 -16 37 -34 37 -13 0 -12
-4 6 -22z"/>
<path d="M19966 21615 c10 -8 24 -14 29 -14 6 0 1 6 -9 14 -11 8 -24 15 -30
15 -5 0 -1 -7 10 -15z"/>
<path d="M20175 21622 c6 -5 21 -13 34 -17 17 -5 22 -4 19 6 -3 8 -18 15 -34
17 -19 2 -25 0 -19 -6z"/>
<path d="M20260 21610 c0 -5 7 -10 16 -10 8 0 12 5 9 10 -3 6 -10 10 -16 10
-5 0 -9 -4 -9 -10z"/>
<path d="M16701 21533 c-17 -19 -3 -32 27 -24 23 6 23 7 5 23 -16 14 -20 14
-32 1z"/>
<path d="M18610 21506 c0 -8 4 -17 9 -20 5 -4 7 3 4 14 -6 23 -13 26 -13 6z"/>
<path d="M20210 21480 c0 -5 5 -10 11 -10 5 0 7 5 4 10 -3 6 -8 10 -11 10 -2
0 -4 -4 -4 -10z"/>
<path d="M17983 21429 c-13 -35 -10 -50 8 -32 6 6 9 23 7 38 l-3 28 -12 -34z"/>
<path d="M18520 21435 c-7 -9 -9 -26 -5 -45 7 -34 10 -35 29 -18 15 14 9 51
-6 42 -6 -4 -8 2 -3 15 7 25 2 27 -15 6z"/>
<path d="M17855 21410 c-3 -5 -1 -10 4 -10 6 0 11 5 11 10 0 6 -2 10 -4 10 -3
0 -8 -4 -11 -10z"/>
<path d="M18538 21353 c-29 -18 -45 -43 -27 -43 16 0 57 30 63 46 7 18 -3 17
-36 -3z"/>
<path d="M18457 21338 c-9 -33 -8 -50 2 -44 13 8 20 42 11 56 -5 8 -9 4 -13
-12z"/>
<path d="M17930 21315 c0 -8 5 -15 10 -15 6 0 10 7 10 15 0 8 -4 15 -10 15 -5
0 -10 -7 -10 -15z"/>
<path d="M18455 21250 c-10 -11 -16 -22 -13 -25 3 -3 13 6 22 20 20 30 16 32
-9 5z"/>
<path d="M18395 21250 c-3 -5 -1 -10 4 -10 6 0 11 5 11 10 0 6 -2 10 -4 10 -3
0 -8 -4 -11 -10z"/>
<path d="M18514 21248 c-4 -7 -3 -8 4 -4 16 10 15 -15 -2 -36 -7 -10 -21 -15
-32 -12 -13 3 -29 -5 -49 -28 -17 -18 -20 -24 -7 -14 32 28 40 11 12 -27 -16
-20 2 -9 48 33 39 36 67 67 62 68 -6 2 -8 7 -5 12 3 4 -2 10 -10 14 -8 3 -17
0 -21 -6z"/>
<path d="M18211 21198 c-1 -21 4 -38 9 -38 11 0 11 14 0 50 -7 22 -8 21 -9
-12z"/>
<path d="M18321 21179 c-14 -39 -14 -106 -1 -114 9 -6 36 29 42 55 2 8 -4 14
-12 15 -11 0 -14 10 -12 38 4 45 -2 48 -17 6z"/>
<path d="M18143 21162 c7 -30 -1 -52 -19 -52 -8 0 -14 -8 -14 -17 0 -13 9 -19
30 -20 26 -2 32 3 45 34 9 20 14 41 11 47 -2 6 -7 3 -11 -7 -7 -17 -10 -16
-27 10 -18 26 -20 26 -15 5z"/>
<path d="M18419 21065 c-25 -13 -55 -62 -44 -73 3 -3 -2 -14 -12 -24 -12 -13
-14 -23 -6 -40 9 -20 12 -17 43 38 18 32 40 67 48 77 22 25 3 39 -29 22z"/>
<path d="M18183 21018 c-17 -22 -41 -105 -34 -116 4 -6 13 10 20 36 7 26 17
57 22 70 10 25 7 28 -8 10z"/>
<path d="M18261 20985 c1 -11 -1 -27 -4 -35 -4 -8 -8 -46 -11 -84 l-3 -69 33
39 c18 22 33 44 33 49 0 6 -6 1 -14 -9 -16 -21 -15 -22 -31 32 -2 7 1 23 7 36
8 17 8 29 0 42 -11 18 -11 18 -10 -1z"/>
<path d="M16888 20950 c-20 -45 -20 -75 -2 -90 11 -10 15 -9 18 1 12 40 15 68
7 94 l-8 30 -15 -35z"/>
<path d="M17672 20897 c-23 -23 -42 -45 -42 -49 0 -14 28 -8 34 7 3 8 17 20
31 25 18 7 25 17 25 35 0 14 -1 25 -2 24 -2 0 -22 -20 -46 -42z"/>
<path d="M16873 20831 c1 -12 6 -20 12 -18 14 5 13 29 -2 34 -7 3 -11 -4 -10
-16z"/>
<path d="M16946 20784 c-5 -14 -4 -15 9 -4 17 14 19 20 6 20 -5 0 -12 -7 -15
-16z"/>
<path d="M16846 20765 c-9 -26 -7 -32 5 -12 6 10 9 21 6 23 -2 3 -7 -2 -11
-11z"/>
<path d="M17693 20768 c-6 -7 -13 -22 -16 -33 -6 -17 -4 -17 13 4 11 13 20 27
20 32 0 12 -6 11 -17 -3z"/>
<path d="M17786 20754 c-4 -9 -4 -19 -1 -22 2 -3 7 3 11 12 4 9 4 19 1 22 -2
3 -7 -3 -11 -12z"/>
<path d="M17632 20736 c-7 -16 -8 -26 -1 -26 12 0 22 25 17 41 -2 6 -9 0 -16
-15z"/>
<path d="M17526 20725 c-8 -8 -18 -24 -21 -35 -4 -11 -10 -18 -13 -16 -4 2
-17 -13 -29 -35 -12 -21 -17 -39 -13 -39 5 0 14 9 20 20 7 14 17 19 29 15 27
-8 52 26 49 69 -2 41 -2 41 -22 21z"/>
<path d="M16952 20660 c0 -14 2 -19 5 -12 2 6 2 18 0 25 -3 6 -5 1 -5 -13z"/>
<path d="M20701 20663 c-1 -7 8 -17 19 -23 16 -9 20 -8 20 6 0 10 -5 14 -14
11 -8 -3 -17 -1 -20 6 -3 9 -5 9 -5 0z"/>
<path d="M17326 20584 c-10 -25 1 -29 14 -5 6 12 7 21 1 21 -5 0 -12 -7 -15
-16z"/>
<path d="M20796 20583 c-6 -14 -5 -15 5 -6 7 7 10 15 7 18 -3 3 -9 -2 -12 -12z"/>
<path d="M20820 20580 c0 -5 5 -10 10 -10 6 0 10 5 10 10 0 6 -4 10 -10 10 -5
0 -10 -4 -10 -10z"/>
<path d="M20860 20570 c-13 -8 -12 -10 3 -10 9 0 17 5 17 10 0 12 -1 12 -20 0z"/>
<path d="M17307 20513 c-4 -3 -7 -11 -7 -17 0 -6 5 -5 12 2 6 6 9 14 7 17 -3
3 -9 2 -12 -2z"/>
<path d="M17292 20449 c-19 -30 -11 -32 11 -3 10 13 14 24 10 24 -5 0 -14 -9
-21 -21z"/>
<path d="M17020 20404 c0 -8 5 -12 10 -9 6 4 8 11 5 16 -9 14 -15 11 -15 -7z"/>
<path d="M20960 20350 c0 -5 -7 -10 -15 -10 -9 0 -12 -6 -9 -15 5 -13 8 -13
21 0 8 8 19 15 24 15 6 0 7 5 4 10 -3 6 -10 10 -16 10 -5 0 -9 -4 -9 -10z"/>
<path d="M21330 20340 c0 -6 7 -10 15 -10 8 0 15 2 15 4 0 2 -7 6 -15 10 -8 3
-15 1 -15 -4z"/>
<path d="M17106 20315 c-3 -8 -1 -15 4 -15 6 0 10 7 10 15 0 8 -2 15 -4 15 -2
0 -6 -7 -10 -15z"/>
<path d="M21050 20280 c-9 -6 -10 -10 -3 -10 6 0 15 5 18 10 8 12 4 12 -15 0z"/>
<path d="M20906 20265 c-3 -8 -1 -15 4 -15 6 0 10 7 10 15 0 8 -2 15 -4 15 -2
0 -6 -7 -10 -15z"/>
<path d="M21486 20083 c-6 -14 -5 -15 5 -6 7 7 10 15 7 18 -3 3 -9 -2 -12 -12z"/>
<path d="M16850 19464 c-77 -33 -103 -78 -135 -232 -12 -59 -13 -88 -4 -145 5
-40 12 -86 15 -102 2 -17 25 -66 50 -110 25 -44 56 -105 67 -136 28 -71 72
-150 165 -292 86 -130 91 -136 131 -160 l31 -18 0 25 c0 20 -9 30 -40 46 -53
27 -74 51 -111 128 -94 196 -118 304 -117 539 0 100 -3 186 -6 191 -3 6 -1 34
4 63 12 60 46 103 120 150 48 30 49 29 -35 54 -62 18 -91 18 -135 -1z"/>
<path d="M17229 19283 c-6 -16 -17 -58 -24 -96 -14 -75 -7 -88 45 -82 14 1 30
3 37 4 23 2 83 63 83 84 0 21 -96 117 -118 117 -7 0 -17 -12 -23 -27z"/>
<path d="M17465 19004 c-60 -48 -196 -78 -217 -50 -6 9 -46 -28 -82 -76 -9
-12 -14 -16 -10 -8 5 10 1 9 -14 -4 -24 -21 -48 -86 -60 -167 -10 -65 2 -110
46 -170 39 -53 71 -76 134 -98 29 -10 80 -28 112 -40 33 -11 64 -21 70 -21 7
0 24 26 39 58 23 47 32 58 50 57 45 -4 57 11 55 74 l-2 58 -38 -17 c-21 -9
-41 -20 -45 -23 -3 -4 -18 -7 -32 -7 -29 -1 -85 -45 -76 -60 3 -6 0 -10 -8
-10 -21 0 -57 44 -57 69 0 21 52 81 69 81 5 0 16 17 27 38 26 52 44 72 64 72
20 0 50 25 75 63 17 27 17 28 -23 112 -23 47 -45 85 -49 85 -4 0 -17 -8 -28
-16z"/>
<path d="M17701 18117 c-6 -8 -8 -17 -4 -20 7 -8 33 11 33 24 0 13 -16 11 -29
-4z"/>
<path d="M20716 17673 c9 -38 14 -42 14 -10 0 14 -5 29 -10 32 -7 4 -8 -3 -4
-22z"/>
<path d="M20860 17646 c0 -8 7 -16 15 -20 8 -3 15 -12 15 -20 0 -8 5 -18 10
-21 16 -10 11 42 -6 59 -19 20 -34 21 -34 2z"/>
<path d="M20553 17548 c-28 -14 -29 -24 -3 -66 15 -24 24 -31 33 -24 9 7 20
-2 42 -34 17 -24 34 -44 40 -44 5 0 4 5 -3 12 -7 7 -12 26 -12 43 -1 37 -41
119 -61 122 -8 1 -24 -3 -36 -9z"/>
<path d="M20382 17294 c-2 -23 0 -25 13 -14 12 10 13 16 4 26 -15 18 -14 18
-17 -12z"/>
<path d="M20060 16964 c0 -3 7 -12 15 -20 13 -14 15 -13 15 5 0 12 -6 21 -15
21 -8 0 -15 -3 -15 -6z"/>
<path d="M20030 16910 c-15 -29 -9 -38 16 -25 19 9 20 13 9 29 -13 17 -14 17
-25 -4z"/>
<path d="M20661 16897 c-8 -10 -7 -14 2 -14 8 0 14 6 14 14 0 7 -1 13 -2 13
-2 0 -8 -6 -14 -13z"/>
<path d="M20706 16875 c-9 -24 5 -41 16 -20 7 11 7 20 0 27 -6 6 -12 3 -16 -7z"/>
<path d="M20053 16815 c0 -28 12 -25 20 5 3 12 0 20 -8 20 -7 0 -12 -11 -12
-25z"/>
<path d="M20076 16674 c-4 -9 -4 -19 -1 -22 2 -3 7 3 11 12 4 9 4 19 1 22 -2
3 -7 -3 -11 -12z"/>
<path d="M20747 16553 c-4 -3 -7 -22 -6 -42 l1 -36 9 39 c9 39 8 52 -4 39z"/>
<path d="M20120 16501 c0 -11 -4 -23 -10 -26 -5 -3 -10 -1 -10 5 0 6 -5 8 -10
5 -14 -8 -1 -57 19 -73 15 -13 14 -15 -3 -25 -10 -7 -31 -22 -46 -34 -35 -29
-44 -29 -37 -2 6 21 5 20 -20 -2 -14 -13 -29 -34 -34 -46 -5 -13 -15 -23 -24
-23 -8 0 -15 -9 -15 -20 0 -11 -11 -27 -24 -36 -15 -9 -22 -21 -19 -30 3 -8
-1 -14 -11 -14 -8 0 -20 -9 -26 -19 -14 -27 -13 -31 9 -31 16 0 18 -5 11 -35
-4 -19 -6 -35 -4 -35 3 0 22 11 44 25 38 24 40 24 40 5 0 -13 -9 -22 -25 -26
-23 -6 -70 -56 -61 -65 3 -2 -6 -5 -19 -5 -16 -1 -22 2 -18 12 3 8 0 14 -6 14
-6 0 -11 -7 -11 -15 0 -8 -3 -14 -7 -14 -30 5 -47 -21 -23 -36 5 -3 7 0 4 8
-6 17 7 29 22 19 26 -17 47 -92 25 -92 -5 0 -11 -9 -14 -20 -11 -42 12 -17 36
40 26 58 39 71 52 50 4 -6 12 -4 22 5 21 21 26 14 13 -19 -9 -26 -9 -27 12
-20 73 22 73 22 68 104 -2 34 -2 35 18 17 11 -10 22 -31 26 -48 7 -37 15 -36
55 1 29 29 61 33 44 7 -10 -16 -12 -67 -3 -67 7 0 21 70 21 102 0 4 4 22 9 39
7 25 6 30 -5 25 -11 -4 -12 0 -4 22 6 14 15 32 20 38 7 8 6 14 -3 17 -10 4
-11 7 0 18 6 7 12 21 12 30 0 10 6 20 13 22 8 4 7 6 -3 6 -9 1 -17 12 -18 27
-2 24 1 26 27 22 27 -4 29 -2 35 38 6 43 -11 96 -29 91 -16 -6 -40 24 -27 32
16 10 -3 35 -21 28 -9 -3 -21 1 -27 9 -18 20 -40 17 -40 -5z m37 -41 c1 -11
-2 -18 -8 -15 -11 7 -12 35 -1 35 4 0 8 -9 9 -20z m-3 -127 c-4 -16 -22 -48
-41 -72 -29 -39 -33 -41 -33 -20 0 35 33 108 50 113 29 7 30 6 24 -21z m-148
-55 c-9 -12 -16 -19 -16 -15 0 11 24 47 28 42 2 -2 -3 -14 -12 -27z m178 0
c-4 -13 -7 -26 -7 -29 1 -3 -5 -6 -13 -6 -18 0 -18 11 1 27 8 7 15 19 15 28 0
8 3 13 6 9 3 -3 2 -16 -2 -29z m-64 -108 c0 -5 -4 -10 -10 -10 -5 0 -10 5 -10
10 0 6 5 10 10 10 6 0 10 -4 10 -10z"/>
<path d="M20006 16466 c-13 -20 -13 -24 -2 -20 8 3 17 13 20 21 10 26 0 25
-18 -1z"/>
<path d="M20283 16483 c-7 -2 -13 -9 -13 -15 0 -7 5 -7 13 1 8 6 18 7 22 3 5
-4 5 -1 1 6 -4 6 -8 12 -9 11 -1 0 -8 -3 -14 -6z"/>
<path d="M20691 16480 c2 -8 -4 -29 -13 -45 -9 -17 -20 -48 -23 -69 -7 -37 -7
-38 14 -27 11 7 21 17 21 23 0 7 4 7 14 -1 10 -8 16 -8 25 3 9 10 8 25 -5 62
-16 48 -39 86 -33 54z"/>
<path d="M20597 16430 c-16 -27 -16 -28 8 -32 14 -3 25 -2 25 1 0 3 3 16 6 27
9 34 -20 37 -39 4z"/>
<path d="M20570 16379 c0 -5 5 -7 10 -4 6 3 10 8 10 11 0 2 -4 4 -10 4 -5 0
-10 -5 -10 -11z"/>
<path d="M19096 16182 c-3 -6 6 -13 22 -16 15 -4 36 -9 47 -13 16 -4 18 -3 8
8 -7 7 -18 14 -25 15 -7 1 -20 5 -29 9 -10 3 -20 2 -23 -3z"/>
<path d="M19800 16173 c0 -13 5 -23 10 -23 13 0 13 11 0 30 -8 12 -10 11 -10
-7z"/>
<path d="M20635 16107 c-9 -35 6 -54 22 -28 9 15 9 23 -2 37 -13 18 -14 17
-20 -9z"/>
<path d="M19750 16110 c0 -5 -7 -10 -15 -10 -8 0 -15 -4 -15 -10 0 -5 0 -13 0
-17 0 -5 4 -8 10 -8 5 0 16 -9 23 -19 14 -19 15 -19 21 2 4 12 12 22 17 22 17
0 9 29 -10 40 -25 13 -31 13 -31 0z"/>
<path d="M19214 16069 c-7 -12 15 -31 28 -23 4 3 8 12 8 20 0 17 -26 19 -36 3z"/>
<path d="M19480 16025 c-7 -9 -11 -18 -8 -20 3 -3 11 1 18 10 7 9 11 18 8 20
-3 3 -11 -1 -18 -10z"/>
<path d="M20520 16026 c0 -9 5 -16 10 -16 6 0 10 4 10 9 0 6 -4 13 -10 16 -5
3 -10 -1 -10 -9z"/>
<path d="M19542 16018 c-6 -6 -12 -19 -12 -27 0 -13 2 -13 16 1 9 9 15 21 13
27 -3 9 -8 8 -17 -1z"/>
<path d="M20457 15993 c-11 -11 -8 -45 4 -38 6 4 10 1 8 -6 -1 -8 -1 -27 0
-43 1 -29 2 -29 17 -10 11 13 17 15 20 7 3 -7 10 -13 15 -13 5 0 9 6 9 13 0 6
9 23 20 37 27 35 25 55 -5 58 -18 1 -25 -3 -25 -16 -1 -16 -1 -16 -11 1 -10
17 -40 23 -52 10z"/>
<path d="M19287 15970 c-17 -17 -17 -18 2 -23 21 -5 34 12 23 30 -4 6 -14 3
-25 -7z"/>
<path d="M19707 15944 c-5 -26 11 -32 31 -12 17 17 15 25 -7 31 -14 3 -20 -2
-24 -19z"/>
<path d="M20065 15949 c-4 -6 -5 -12 -2 -15 2 -3 7 2 10 11 7 17 1 20 -8 4z"/>
<path d="M20306 15898 c9 -67 16 -77 24 -39 5 20 4 44 -3 58 -16 37 -28 27
-21 -19z"/>
<path d="M19998 15913 c7 -3 16 -2 19 1 4 3 -2 6 -13 5 -11 0 -14 -3 -6 -6z"/>
<path d="M20421 15911 c-8 -5 -11 -16 -8 -25 7 -17 27 -22 27 -7 0 5 3 16 6
25 7 18 -4 20 -25 7z"/>
<path d="M20407 15828 c-4 -12 -4 -24 -1 -27 6 -7 24 20 24 37 0 21 -17 13
-23 -10z"/>
<path d="M20278 15834 c-5 -4 -8 -28 -7 -53 l1 -46 9 34 c11 36 9 77 -3 65z"/>
<path d="M40636 15060 c-111 -14 -160 -31 -176 -60 -32 -60 61 -81 398 -94 28
-1 52 1 52 5 0 3 11 5 25 4 25 -3 25 -2 25 71 l0 74 -47 0 c-27 0 -84 2 -128
4 -44 3 -111 1 -149 -4z"/>
<path d="M20236 3913 c-6 -14 -5 -15 5 -6 7 7 10 15 7 18 -3 3 -9 -2 -12 -12z"/>
<path d="M35253 3883 c-13 -2 -23 -8 -23 -13 0 -10 38 -1 46 11 3 5 4 8 2 8
-2 -1 -13 -4 -25 -6z"/>
<path d="M20380 3809 c0 -5 5 -7 10 -4 6 3 10 8 10 11 0 2 -4 4 -10 4 -5 0
-10 -5 -10 -11z"/>
<path d="M34715 3789 c-4 -6 -5 -12 -2 -15 2 -3 7 2 10 11 7 17 1 20 -8 4z"/>
<path d="M34795 3790 c-3 -5 -1 -10 4 -10 6 0 11 5 11 10 0 6 -2 10 -4 10 -3
0 -8 -4 -11 -10z"/>
<path d="M20360 3775 c0 -8 2 -15 4 -15 2 0 6 7 10 15 3 8 1 15 -4 15 -6 0
-10 -7 -10 -15z"/>
<path d="M34570 3751 c0 -5 7 -12 16 -15 14 -5 15 -4 4 9 -14 17 -20 19 -20 6z"/>
<path d="M34197 3713 c-4 -3 -7 -11 -7 -17 0 -6 5 -5 12 2 6 6 9 14 7 17 -3 3
-9 2 -12 -2z"/>
<path d="M33997 3659 c7 -7 15 -10 18 -7 3 3 -2 9 -12 12 -14 6 -15 5 -6 -5z"/>
<path d="M20218 3243 c7 -3 16 -2 19 1 4 3 -2 6 -13 5 -11 0 -14 -3 -6 -6z"/>
<path d="M15321 3045 c-1 -23 87 -108 140 -135 l35 -19 -4 28 c-3 21 -15 35
-45 52 -23 12 -53 33 -67 46 -14 13 -30 23 -37 23 -6 0 -14 6 -16 13 -3 6 -6
3 -6 -8z"/>
<path d="M14395 2048 c-88 -3 -203 -11 -255 -17 -107 -11 -411 -41 -480 -46
-25 -2 -88 -8 -141 -14 -52 -6 -126 -13 -165 -16 -38 -4 -100 -10 -139 -15
-66 -8 -99 -12 -250 -25 -33 -3 -78 -8 -100 -10 -22 -3 -137 -15 -255 -26
-379 -35 -413 -39 -550 -54 -88 -9 -174 -12 -248 -8 -99 5 -114 4 -132 -12
-11 -10 -20 -24 -20 -31 0 -23 64 -145 134 -256 37 -59 82 -143 100 -185 155
-365 194 -483 246 -742 22 -110 40 -211 40 -225 0 -13 4 -27 9 -30 5 -4 13
-25 17 -49 4 -23 8 -44 9 -47 4 -19 49 -147 55 -155 4 -5 13 -27 20 -48 l12
-38 1817 3 c1500 2 1821 5 1834 16 22 19 13 60 -31 136 -19 34 -58 109 -87
167 -29 59 -68 133 -88 165 -19 33 -70 118 -112 189 -124 209 -213 345 -226
345 -4 0 -15 3 -24 6 -14 6 -16 1 -14 -27 2 -32 -10 -74 -30 -109 -11 -20 -54
-23 -47 -3 3 8 0 23 -7 33 -19 28 -9 200 13 200 9 0 3 69 -12 120 -17 61 -137
282 -284 523 -30 49 -54 91 -54 94 0 23 -77 125 -107 143 -52 30 -178 61 -238
58 -27 -2 -122 -6 -210 -10z"/>
</defs>
</symbo>
</g>
</svg>
