<svg aria-hidden="true" style="position: absolute; width: 0; height: 0; overflow: hidden;" version="1.1" xmlns="http://www.w3.org/2000/svg" xmlns:xlink="http://www.w3.org/1999/xlink">
<defs>
<symbol id="icon-arrow-narrow-left" viewBox="0 0 32 32">
<path d="M13.067 7.052c-0.227 0.047-0.466 0.275-4.393 4.192-2.845 2.839-4.183 4.21-4.252 4.356-0.061 0.117-0.097 0.255-0.097 0.402 0 0.13 0.028 0.254 0.079 0.366l-0.002-0.006c0.105 0.255 8.164 8.339 8.475 8.501 0.844 0.44 1.759-0.475 1.319-1.32-0.064-0.124-1.392-1.491-3.259-3.356l-3.151-3.147 19.121-0.053 0.239-0.134c0.657-0.368 0.657-1.338 0-1.706l-0.239-0.134-19.121-0.053 3.151-3.147c1.867-1.865 3.195-3.232 3.259-3.356 0.237-0.454 0.069-1.062-0.357-1.29-0.274-0.147-0.475-0.177-0.772-0.115z"></path>
</symbol>
<symbol id="icon-arrow-narrow-right" viewBox="0 0 32 32">
<path d="M13.067 7.052c-0.227 0.047-0.466 0.275-4.393 4.192-2.845 2.839-4.183 4.21-4.252 4.356-0.061 0.117-0.097 0.255-0.097 0.402 0 0.13 0.028 0.254 0.079 0.366l-0.002-0.006c0.105 0.255 8.164 8.339 8.475 8.501 0.844 0.44 1.759-0.475 1.319-1.32-0.064-0.124-1.392-1.491-3.259-3.356l-3.151-3.147 19.121-0.053 0.239-0.134c0.657-0.368 0.657-1.338 0-1.706l-0.239-0.134-19.121-0.053 3.151-3.147c1.867-1.865 3.195-3.232 3.259-3.356 0.237-0.454 0.069-1.062-0.357-1.29-0.274-0.147-0.475-0.177-0.772-0.115z"></path>
</symbol>
</defs>
</svg>
